<?xml version="1.0" encoding="us-ascii" standalone="no"?><svg xmlns="http://www.w3.org/2000/svg" xmlns:xlink="http://www.w3.org/1999/xlink" contentStyleType="text/css" height="687.2px" preserveAspectRatio="none" style="width:5274px;height:687px;background:#FFFFFF;" version="1.1" viewBox="0 0 5274 687" width="5274.4px" zoomAndPan="magnify"><defs/><g><!--cluster com--><g id="cluster_com"><path d="M6.8,215.2109 L30.8,215.2109 A3,3 0 0 1 32.8,217.2109 L38.4,234.9078 L5266.8,234.9078 A2,2 0 0 1 5268.8,236.9078 L5268.8,680.0109 A2,2 0 0 1 5266.8,682.0109 L6.8,682.0109 A2,2 0 0 1 4.8,680.0109 L4.8,217.2109 A2,2 0 0 1 6.8,215.2109 " fill="none" style="stroke:#000000;stroke-width:1.2000000000000002;"/><line style="stroke:#000000;stroke-width:1.2000000000000002;" x1="4.8" x2="38.4" y1="234.9078" y2="234.9078"/><text fill="#000000" font-family="sans-serif" font-size="11.2" font-weight="bold" lengthAdjust="spacing" textLength="23.2" x="8" y="228.8969">com</text></g><!--cluster marisma--><g id="cluster_marisma"><path d="M26,251.2109 L73.2,251.2109 A3,3 0 0 1 75.2,253.2109 L80.8,270.9078 L5247.6,270.9078 A2,2 0 0 1 5249.6,272.9078 L5249.6,660.8109 A2,2 0 0 1 5247.6,662.8109 L26,662.8109 A2,2 0 0 1 24,660.8109 L24,253.2109 A2,2 0 0 1 26,251.2109 " fill="none" style="stroke:#000000;stroke-width:1.2000000000000002;"/><line style="stroke:#000000;stroke-width:1.2000000000000002;" x1="24" x2="80.8" y1="270.9078" y2="270.9078"/><text fill="#000000" font-family="sans-serif" font-size="11.2" font-weight="bold" lengthAdjust="spacing" textLength="46.4" x="27.2" y="264.8969">marisma</text></g><!--cluster juegos--><g id="cluster_juegos"><path d="M232.4,287.2109 L271.6,287.2109 A3,3 0 0 1 273.6,289.2109 L279.2,306.9078 L5228.4,306.9078 A2,2 0 0 1 5230.4,308.9078 L5230.4,641.6109 A2,2 0 0 1 5228.4,643.6109 L232.4,643.6109 A2,2 0 0 1 230.4,641.6109 L230.4,289.2109 A2,2 0 0 1 232.4,287.2109 " fill="none" style="stroke:#000000;stroke-width:1.2000000000000002;"/><line style="stroke:#000000;stroke-width:1.2000000000000002;" x1="230.4" x2="279.2" y1="306.9078" y2="306.9078"/><text fill="#000000" font-family="sans-serif" font-size="11.2" font-weight="bold" lengthAdjust="spacing" textLength="38.4" x="233.6" y="300.8969">juegos</text></g><!--cluster adapter--><g id="cluster_adapter"><path d="M2580.4,323.2109 L2624.4,323.2109 A3,3 0 0 1 2626.4,325.2109 L2632,342.9078 L5209.2,342.9078 A2,2 0 0 1 5211.2,344.9078 L5211.2,622.4109 A2,2 0 0 1 5209.2,624.4109 L2580.4,624.4109 A2,2 0 0 1 2578.4,622.4109 L2578.4,325.2109 A2,2 0 0 1 2580.4,323.2109 " fill="none" style="stroke:#000000;stroke-width:1.2000000000000002;"/><line style="stroke:#000000;stroke-width:1.2000000000000002;" x1="2578.4" x2="2632" y1="342.9078" y2="342.9078"/><text fill="#000000" font-family="sans-serif" font-size="11.2" font-weight="bold" lengthAdjust="spacing" textLength="43.2" x="2581.6" y="336.8969">adapter</text></g><!--cluster clasicalsmusicians--><g id="cluster_clasicalsmusicians"><path d="M45.2,352.8109 L150,352.8109 A3,3 0 0 1 152,354.8109 L157.6,372.5078 L209.2,372.5078 A2,2 0 0 1 211.2,374.5078 L211.2,446.8109 A2,2 0 0 1 209.2,448.8109 L45.2,448.8109 A2,2 0 0 1 43.2,446.8109 L43.2,354.8109 A2,2 0 0 1 45.2,352.8109 " fill="none" style="stroke:#000000;stroke-width:1.2000000000000002;"/><line style="stroke:#000000;stroke-width:1.2000000000000002;" x1="43.2" x2="157.6" y1="372.5078" y2="372.5078"/><text fill="#000000" font-family="sans-serif" font-size="11.2" font-weight="bold" lengthAdjust="spacing" textLength="104" x="46.4" y="366.4969">clasicalsmusicians</text></g><!--cluster androidx--><g id="cluster_androidx"><path d="M2449.2,4.8109 L2499.6,4.8109 A3,3 0 0 1 2501.6,6.8109 L2507.2,24.5078 L3050,24.5078 A2,2 0 0 1 3052,26.5078 L3052,194.0109 A2,2 0 0 1 3050,196.0109 L2449.2,196.0109 A2,2 0 0 1 2447.2,194.0109 L2447.2,6.8109 A2,2 0 0 1 2449.2,4.8109 " fill="none" style="stroke:#000000;stroke-width:1.2000000000000002;"/><line style="stroke:#000000;stroke-width:1.2000000000000002;" x1="2447.2" x2="2507.2" y1="24.5078" y2="24.5078"/><text fill="#000000" font-family="sans-serif" font-size="11.2" font-weight="bold" lengthAdjust="spacing" textLength="49.6" x="2450.4" y="18.4969">androidx</text></g><!--cluster fragment--><g id="cluster_fragment"><path d="M2671.6,40.8109 L2722.8,40.8109 A3,3 0 0 1 2724.8,42.8109 L2730.4,60.5078 L2806.8,60.5078 A2,2 0 0 1 2808.8,62.5078 L2808.8,174.8109 A2,2 0 0 1 2806.8,176.8109 L2671.6,176.8109 A2,2 0 0 1 2669.6,174.8109 L2669.6,42.8109 A2,2 0 0 1 2671.6,40.8109 " fill="none" style="stroke:#000000;stroke-width:1.2000000000000002;"/><line style="stroke:#000000;stroke-width:1.2000000000000002;" x1="2669.6" x2="2730.4" y1="60.5078" y2="60.5078"/><text fill="#000000" font-family="sans-serif" font-size="11.2" font-weight="bold" lengthAdjust="spacing" textLength="50.4" x="2672.8" y="54.4969">fragment</text></g><!--cluster app--><g id="cluster_app"><path d="M2690.8,76.8109 L2712.4,76.8109 A3,3 0 0 1 2714.4,78.8109 L2720,96.5078 L2787.6,96.5078 A2,2 0 0 1 2789.6,98.5078 L2789.6,155.6109 A2,2 0 0 1 2787.6,157.6109 L2690.8,157.6109 A2,2 0 0 1 2688.8,155.6109 L2688.8,78.8109 A2,2 0 0 1 2690.8,76.8109 " fill="none" style="stroke:#000000;stroke-width:1.2000000000000002;"/><line style="stroke:#000000;stroke-width:1.2000000000000002;" x1="2688.8" x2="2720" y1="96.5078" y2="96.5078"/><text fill="#000000" font-family="sans-serif" font-size="11.2" font-weight="bold" lengthAdjust="spacing" textLength="20.8" x="2692" y="90.4969">app</text></g><!--cluster viewpager2--><g id="cluster_viewpager2"><path d="M2830,40.8109 L2896.4,40.8109 A3,3 0 0 1 2898.4,42.8109 L2904,60.5078 L3030.8,60.5078 A2,2 0 0 1 3032.8,62.5078 L3032.8,174.8109 A2,2 0 0 1 3030.8,176.8109 L2830,176.8109 A2,2 0 0 1 2828,174.8109 L2828,42.8109 A2,2 0 0 1 2830,40.8109 " fill="none" style="stroke:#000000;stroke-width:1.2000000000000002;"/><line style="stroke:#000000;stroke-width:1.2000000000000002;" x1="2828" x2="2904" y1="60.5078" y2="60.5078"/><text fill="#000000" font-family="sans-serif" font-size="11.2" font-weight="bold" lengthAdjust="spacing" textLength="65.6" x="2831.2" y="54.4969">viewpager2</text></g><!--cluster adapter--><g id="cluster_adapter"><path d="M2849.2,76.8109 L2893.2,76.8109 A3,3 0 0 1 2895.2,78.8109 L2900.8,96.5078 L3011.6,96.5078 A2,2 0 0 1 3013.6,98.5078 L3013.6,155.6109 A2,2 0 0 1 3011.6,157.6109 L2849.2,157.6109 A2,2 0 0 1 2847.2,155.6109 L2847.2,78.8109 A2,2 0 0 1 2849.2,76.8109 " fill="none" style="stroke:#000000;stroke-width:1.2000000000000002;"/><line style="stroke:#000000;stroke-width:1.2000000000000002;" x1="2847.2" x2="2900.8" y1="96.5078" y2="96.5078"/><text fill="#000000" font-family="sans-serif" font-size="11.2" font-weight="bold" lengthAdjust="spacing" textLength="43.2" x="2850.4" y="90.4969">adapter</text></g><!--cluster appcompat--><g id="cluster_appcompat"><path d="M2468.4,40.8109 L2530.8,40.8109 A3,3 0 0 1 2532.8,42.8109 L2538.4,60.5078 L2648.4,60.5078 A2,2 0 0 1 2650.4,62.5078 L2650.4,174.8109 A2,2 0 0 1 2648.4,176.8109 L2468.4,176.8109 A2,2 0 0 1 2466.4,174.8109 L2466.4,42.8109 A2,2 0 0 1 2468.4,40.8109 " fill="none" style="stroke:#000000;stroke-width:1.2000000000000002;"/><line style="stroke:#000000;stroke-width:1.2000000000000002;" x1="2466.4" x2="2538.4" y1="60.5078" y2="60.5078"/><text fill="#000000" font-family="sans-serif" font-size="11.2" font-weight="bold" lengthAdjust="spacing" textLength="61.6" x="2469.6" y="54.4969">appcompat</text></g><!--cluster app--><g id="cluster_app"><path d="M2487.6,76.8109 L2509.2,76.8109 A3,3 0 0 1 2511.2,78.8109 L2516.8,96.5078 L2629.2,96.5078 A2,2 0 0 1 2631.2,98.5078 L2631.2,155.6109 A2,2 0 0 1 2629.2,157.6109 L2487.6,157.6109 A2,2 0 0 1 2485.6,155.6109 L2485.6,78.8109 A2,2 0 0 1 2487.6,76.8109 " fill="none" style="stroke:#000000;stroke-width:1.2000000000000002;"/><line style="stroke:#000000;stroke-width:1.2000000000000002;" x1="2485.6" x2="2516.8" y1="96.5078" y2="96.5078"/><text fill="#000000" font-family="sans-serif" font-size="11.2" font-weight="bold" lengthAdjust="spacing" textLength="20.8" x="2488.8" y="90.4969">app</text></g><!--class ItemListFragment--><g id="elem_ItemListFragment"><rect codeLine="1" fill="#F1F1F1" height="142.6781" id="ItemListFragment" rx="2" ry="2" style="stroke:#181818;stroke-width:0.4000000000000001;" width="304" x="2259.2" y="338.0109"/><ellipse cx="2364.2" cy="350.8109" fill="#ADD1B2" rx="8.8" ry="8.8" style="stroke:#181818;stroke-width:0.8000000000000002;"/><path d="M2366.4125,347.5109 Q2366.5375,347.3359 2366.6875,347.2484 Q2366.8375,347.1609 2367.0125,347.1609 Q2367.3125,347.1609 2367.5,347.3734 Q2367.6875,347.5734 2367.6875,348.0609 L2367.6875,349.2234 Q2367.6875,349.7109 2367.5,349.9234 Q2367.3125,350.1359 2367.0125,350.1359 Q2366.7375,350.1359 2366.575,349.9734 Q2366.4125,349.8234 2366.325,349.4109 Q2366.2875,349.1234 2366.1375,348.9734 Q2365.875,348.6734 2365.3875,348.4984 Q2364.9,348.3234 2364.4,348.3234 Q2363.7875,348.3234 2363.275,348.5859 Q2362.775,348.8484 2362.375,349.4484 Q2361.9875,350.0484 2361.9875,350.8734 L2361.9875,351.7484 Q2361.9875,352.7359 2362.7,353.3984 Q2363.4125,354.0484 2364.6875,354.0484 Q2365.4375,354.0484 2365.9625,353.8484 Q2366.275,353.7234 2366.6125,353.3734 Q2366.825,353.1609 2366.9375,353.0984 Q2367.0625,353.0359 2367.225,353.0359 Q2367.4875,353.0359 2367.6875,353.2484 Q2367.9,353.4484 2367.9,353.7234 Q2367.9,353.9984 2367.625,354.3234 Q2367.225,354.7859 2366.5875,355.0484 Q2365.725,355.4109 2364.6875,355.4109 Q2363.475,355.4109 2362.5125,354.9109 Q2361.725,354.5109 2361.175,353.6609 Q2360.625,352.7984 2360.625,351.7734 L2360.625,350.8484 Q2360.625,349.7859 2361.1125,348.8734 Q2361.6125,347.9484 2362.4875,347.4609 Q2363.3625,346.9609 2364.35,346.9609 Q2364.9375,346.9609 2365.45,347.0984 Q2365.975,347.2234 2366.4125,347.5109 Z " fill="#000000"/><text fill="#000000" font-family="sans-serif" font-size="11.2" lengthAdjust="spacing" textLength="87.2" x="2380.6" y="355.4484">ItemListFragment</text><line style="stroke:#181818;stroke-width:0.4000000000000001;" x1="2260" x2="2562.4" y1="363.6109" y2="363.6109"/><rect fill="none" height="4.8" style="stroke:#C82930;stroke-width:0.8000000000000002;" width="4.8" x="2265.6" y="373.0594"/><text fill="#000000" font-family="sans-serif" font-size="11.2" lengthAdjust="spacing" textLength="177.6" x="2275.2" y="378.8969">FragmentItemListBinding? _binding</text><rect fill="none" height="4.8" style="stroke:#C82930;stroke-width:0.8000000000000002;" width="4.8" x="2265.6" y="387.9563"/><text fill="#000000" font-family="sans-serif" font-size="11.2" lengthAdjust="spacing" textLength="36.8" x="2275.2" y="393.7938">binding</text><line style="stroke:#181818;stroke-width:0.4000000000000001;" x1="2260" x2="2562.4" y1="399.8047" y2="399.8047"/><ellipse cx="2268" cy="411.6531" fill="#84BE84" rx="2.4" ry="2.4" style="stroke:#038048;stroke-width:0.8000000000000002;"/><text fill="#000000" font-family="sans-serif" font-size="11.2" lengthAdjust="spacing" textLength="283.2" x="2275.2" y="415.0906">View onCreateView(LayoutInflater,ViewGroup?,Bundle?)</text><ellipse cx="2268" cy="426.55" fill="#84BE84" rx="2.4" ry="2.4" style="stroke:#038048;stroke-width:0.8000000000000002;"/><text fill="#000000" font-family="sans-serif" font-size="11.2" lengthAdjust="spacing" textLength="176.8" x="2275.2" y="429.9875">void onViewCreated(View,Bundle?)</text><rect fill="#F24D5C" height="4.8" style="stroke:#C82930;stroke-width:0.8000000000000002;" width="4.8" x="2265.6" y="439.0469"/><text fill="#000000" font-family="sans-serif" font-size="11.2" lengthAdjust="spacing" textLength="128.8" x="2275.2" y="444.8844">void iniciarRecyclerView()</text><rect fill="#F24D5C" height="4.8" style="stroke:#C82930;stroke-width:0.8000000000000002;" width="4.8" x="2265.6" y="453.9438"/><text fill="#000000" font-family="sans-serif" font-size="11.2" lengthAdjust="spacing" textLength="139.2" x="2275.2" y="459.7813">void onItemSelected(Datos)</text><ellipse cx="2268" cy="471.2406" fill="#84BE84" rx="2.4" ry="2.4" style="stroke:#038048;stroke-width:0.8000000000000002;"/><text fill="#000000" font-family="sans-serif" font-size="11.2" lengthAdjust="spacing" textLength="107.2" x="2275.2" y="474.6781">void onDestroyView()</text></g><!--class Juego2Fragment--><g id="elem_Juego2Fragment"><rect codeLine="26" fill="#F1F1F1" height="112.8844" id="Juego2Fragment" rx="2" ry="2" style="stroke:#181818;stroke-width:0.4000000000000001;" width="310.4" x="1920.8" y="352.8109"/><ellipse cx="2029.8" cy="365.6109" fill="#ADD1B2" rx="8.8" ry="8.8" style="stroke:#181818;stroke-width:0.8000000000000002;"/><path d="M2032.0125,362.3109 Q2032.1375,362.1359 2032.2875,362.0484 Q2032.4375,361.9609 2032.6125,361.9609 Q2032.9125,361.9609 2033.1,362.1734 Q2033.2875,362.3734 2033.2875,362.8609 L2033.2875,364.0234 Q2033.2875,364.5109 2033.1,364.7234 Q2032.9125,364.9359 2032.6125,364.9359 Q2032.3375,364.9359 2032.175,364.7734 Q2032.0125,364.6234 2031.925,364.2109 Q2031.8875,363.9234 2031.7375,363.7734 Q2031.475,363.4734 2030.9875,363.2984 Q2030.5,363.1234 2030,363.1234 Q2029.3875,363.1234 2028.875,363.3859 Q2028.375,363.6484 2027.975,364.2484 Q2027.5875,364.8484 2027.5875,365.6734 L2027.5875,366.5484 Q2027.5875,367.5359 2028.3,368.1984 Q2029.0125,368.8484 2030.2875,368.8484 Q2031.0375,368.8484 2031.5625,368.6484 Q2031.875,368.5234 2032.2125,368.1734 Q2032.425,367.9609 2032.5375,367.8984 Q2032.6625,367.8359 2032.825,367.8359 Q2033.0875,367.8359 2033.2875,368.0484 Q2033.5,368.2484 2033.5,368.5234 Q2033.5,368.7984 2033.225,369.1234 Q2032.825,369.5859 2032.1875,369.8484 Q2031.325,370.2109 2030.2875,370.2109 Q2029.075,370.2109 2028.1125,369.7109 Q2027.325,369.3109 2026.775,368.4609 Q2026.225,367.5984 2026.225,366.5734 L2026.225,365.6484 Q2026.225,364.5859 2026.7125,363.6734 Q2027.2125,362.7484 2028.0875,362.2609 Q2028.9625,361.7609 2029.95,361.7609 Q2030.5375,361.7609 2031.05,361.8984 Q2031.575,362.0234 2032.0125,362.3109 Z " fill="#000000"/><text fill="#000000" font-family="sans-serif" font-size="11.2" lengthAdjust="spacing" textLength="85.6" x="2046.2" y="370.2484">Juego2Fragment</text><line style="stroke:#181818;stroke-width:0.4000000000000001;" x1="1921.6" x2="2230.4" y1="378.4109" y2="378.4109"/><rect fill="none" height="4.8" style="stroke:#C82930;stroke-width:0.8000000000000002;" width="4.8" x="1927.2" y="387.8594"/><text fill="#000000" font-family="sans-serif" font-size="11.2" lengthAdjust="spacing" textLength="176" x="1936.8" y="393.6969">FragmentJuego2Binding? _binding</text><rect fill="none" height="4.8" style="stroke:#C82930;stroke-width:0.8000000000000002;" width="4.8" x="1927.2" y="402.7563"/><text fill="#000000" font-family="sans-serif" font-size="11.2" lengthAdjust="spacing" textLength="36.8" x="1936.8" y="408.5938">binding</text><line style="stroke:#181818;stroke-width:0.4000000000000001;" x1="1921.6" x2="2230.4" y1="414.6047" y2="414.6047"/><ellipse cx="1929.6" cy="426.4531" fill="#84BE84" rx="2.4" ry="2.4" style="stroke:#038048;stroke-width:0.8000000000000002;"/><text fill="#000000" font-family="sans-serif" font-size="11.2" lengthAdjust="spacing" textLength="289.6" x="1936.8" y="429.8906">View? onCreateView(LayoutInflater,ViewGroup?,Bundle?)</text><ellipse cx="1929.6" cy="441.35" fill="#84BE84" rx="2.4" ry="2.4" style="stroke:#038048;stroke-width:0.8000000000000002;"/><text fill="#000000" font-family="sans-serif" font-size="11.2" lengthAdjust="spacing" textLength="107.2" x="1936.8" y="444.7875">void onDestroyView()</text><rect fill="#F24D5C" height="4.8" style="stroke:#C82930;stroke-width:0.8000000000000002;" width="4.8" x="1927.2" y="453.8469"/><text fill="#000000" font-family="sans-serif" font-size="11.2" lengthAdjust="spacing" textLength="107.2" x="1936.8" y="459.6844">void closeFragment()</text></g><!--class Datos--><g id="elem_Datos"><rect codeLine="44" fill="#F1F1F1" height="38.4" id="Datos" rx="2" ry="2" style="stroke:#181818;stroke-width:0.4000000000000001;" width="55.2" x="1837.2" y="390.0109"/><ellipse cx="1849.2" cy="402.8109" fill="#ADD1B2" rx="8.8" ry="8.8" style="stroke:#181818;stroke-width:0.8000000000000002;"/><path d="M1851.4125,399.5109 Q1851.5375,399.3359 1851.6875,399.2484 Q1851.8375,399.1609 1852.0125,399.1609 Q1852.3125,399.1609 1852.5,399.3734 Q1852.6875,399.5734 1852.6875,400.0609 L1852.6875,401.2234 Q1852.6875,401.7109 1852.5,401.9234 Q1852.3125,402.1359 1852.0125,402.1359 Q1851.7375,402.1359 1851.575,401.9734 Q1851.4125,401.8234 1851.325,401.4109 Q1851.2875,401.1234 1851.1375,400.9734 Q1850.875,400.6734 1850.3875,400.4984 Q1849.9,400.3234 1849.4,400.3234 Q1848.7875,400.3234 1848.275,400.5859 Q1847.775,400.8484 1847.375,401.4484 Q1846.9875,402.0484 1846.9875,402.8734 L1846.9875,403.7484 Q1846.9875,404.7359 1847.7,405.3984 Q1848.4125,406.0484 1849.6875,406.0484 Q1850.4375,406.0484 1850.9625,405.8484 Q1851.275,405.7234 1851.6125,405.3734 Q1851.825,405.1609 1851.9375,405.0984 Q1852.0625,405.0359 1852.225,405.0359 Q1852.4875,405.0359 1852.6875,405.2484 Q1852.9,405.4484 1852.9,405.7234 Q1852.9,405.9984 1852.625,406.3234 Q1852.225,406.7859 1851.5875,407.0484 Q1850.725,407.4109 1849.6875,407.4109 Q1848.475,407.4109 1847.5125,406.9109 Q1846.725,406.5109 1846.175,405.6609 Q1845.625,404.7984 1845.625,403.7734 L1845.625,402.8484 Q1845.625,401.7859 1846.1125,400.8734 Q1846.6125,399.9484 1847.4875,399.4609 Q1848.3625,398.9609 1849.35,398.9609 Q1849.9375,398.9609 1850.45,399.0984 Q1850.975,399.2234 1851.4125,399.5109 Z " fill="#000000"/><text fill="#000000" font-family="sans-serif" font-size="11.2" lengthAdjust="spacing" textLength="29.6" x="1860.4" y="407.4484">Datos</text><line style="stroke:#181818;stroke-width:0.4000000000000001;" x1="1838" x2="1891.6" y1="415.6109" y2="415.6109"/><line style="stroke:#181818;stroke-width:0.4000000000000001;" x1="1838" x2="1891.6" y1="422.0109" y2="422.0109"/></g><!--class ReciclerViewActivity--><g id="elem_ReciclerViewActivity"><rect codeLine="59" fill="#F1F1F1" height="97.9875" id="ReciclerViewActivity" rx="2" ry="2" style="stroke:#181818;stroke-width:0.4000000000000001;" width="211.2" x="920.8" y="360.4109"/><ellipse cx="973.4" cy="373.2109" fill="#ADD1B2" rx="8.8" ry="8.8" style="stroke:#181818;stroke-width:0.8000000000000002;"/><path d="M975.6125,369.9109 Q975.7375,369.7359 975.8875,369.6484 Q976.0375,369.5609 976.2125,369.5609 Q976.5125,369.5609 976.7,369.7734 Q976.8875,369.9734 976.8875,370.4609 L976.8875,371.6234 Q976.8875,372.1109 976.7,372.3234 Q976.5125,372.5359 976.2125,372.5359 Q975.9375,372.5359 975.775,372.3734 Q975.6125,372.2234 975.525,371.8109 Q975.4875,371.5234 975.3375,371.3734 Q975.075,371.0734 974.5875,370.8984 Q974.1,370.7234 973.6,370.7234 Q972.9875,370.7234 972.475,370.9859 Q971.975,371.2484 971.575,371.8484 Q971.1875,372.4484 971.1875,373.2734 L971.1875,374.1484 Q971.1875,375.1359 971.9,375.7984 Q972.6125,376.4484 973.8875,376.4484 Q974.6375,376.4484 975.1625,376.2484 Q975.475,376.1234 975.8125,375.7734 Q976.025,375.5609 976.1375,375.4984 Q976.2625,375.4359 976.425,375.4359 Q976.6875,375.4359 976.8875,375.6484 Q977.1,375.8484 977.1,376.1234 Q977.1,376.3984 976.825,376.7234 Q976.425,377.1859 975.7875,377.4484 Q974.925,377.8109 973.8875,377.8109 Q972.675,377.8109 971.7125,377.3109 Q970.925,376.9109 970.375,376.0609 Q969.825,375.1984 969.825,374.1734 L969.825,373.2484 Q969.825,372.1859 970.3125,371.2734 Q970.8125,370.3484 971.6875,369.8609 Q972.5625,369.3609 973.55,369.3609 Q974.1375,369.3609 974.65,369.4984 Q975.175,369.6234 975.6125,369.9109 Z " fill="#000000"/><text fill="#000000" font-family="sans-serif" font-size="11.2" lengthAdjust="spacing" textLength="99.2" x="989.8" y="377.8484">ReciclerViewActivity</text><line style="stroke:#181818;stroke-width:0.4000000000000001;" x1="921.6" x2="1131.2" y1="386.0109" y2="386.0109"/><rect fill="none" height="4.8" style="stroke:#C82930;stroke-width:0.8000000000000002;" width="4.8" x="927.2" y="395.4594"/><text fill="#000000" font-family="sans-serif" font-size="11.2" lengthAdjust="spacing" textLength="190.4" x="936.8" y="401.2969">FragmentReciclerViewBinding binding</text><line style="stroke:#181818;stroke-width:0.4000000000000001;" x1="921.6" x2="1131.2" y1="407.3078" y2="407.3078"/><ellipse cx="929.6" cy="419.1563" fill="#84BE84" rx="2.4" ry="2.4" style="stroke:#038048;stroke-width:0.8000000000000002;"/><text fill="#000000" font-family="sans-serif" font-size="11.2" lengthAdjust="spacing" textLength="120.8" x="936.8" y="422.5938">void onCreate(Bundle?)</text><ellipse cx="929.6" cy="434.0531" fill="#84BE84" rx="2.4" ry="2.4" style="stroke:#038048;stroke-width:0.8000000000000002;"/><text fill="#000000" font-family="sans-serif" font-size="11.2" lengthAdjust="spacing" textLength="128.8" x="936.8" y="437.4906">void iniciarRecyclerView()</text><rect fill="#F24D5C" height="4.8" style="stroke:#C82930;stroke-width:0.8000000000000002;" width="4.8" x="927.2" y="446.55"/><text fill="#000000" font-family="sans-serif" font-size="11.2" lengthAdjust="spacing" textLength="139.2" x="936.8" y="452.3875">void onItemSelected(Datos)</text></g><!--class MainActivity--><g id="elem_MainActivity"><rect codeLine="94" fill="#F1F1F1" height="83.0906" id="MainActivity" rx="2" ry="2" style="stroke:#181818;stroke-width:0.4000000000000001;" width="184" x="708.8" y="367.6109"/><ellipse cx="767.8" cy="380.4109" fill="#ADD1B2" rx="8.8" ry="8.8" style="stroke:#181818;stroke-width:0.8000000000000002;"/><path d="M770.0125,377.1109 Q770.1375,376.9359 770.2875,376.8484 Q770.4375,376.7609 770.6125,376.7609 Q770.9125,376.7609 771.1,376.9734 Q771.2875,377.1734 771.2875,377.6609 L771.2875,378.8234 Q771.2875,379.3109 771.1,379.5234 Q770.9125,379.7359 770.6125,379.7359 Q770.3375,379.7359 770.175,379.5734 Q770.0125,379.4234 769.925,379.0109 Q769.8875,378.7234 769.7375,378.5734 Q769.475,378.2734 768.9875,378.0984 Q768.5,377.9234 768,377.9234 Q767.3875,377.9234 766.875,378.1859 Q766.375,378.4484 765.975,379.0484 Q765.5875,379.6484 765.5875,380.4734 L765.5875,381.3484 Q765.5875,382.3359 766.3,382.9984 Q767.0125,383.6484 768.2875,383.6484 Q769.0375,383.6484 769.5625,383.4484 Q769.875,383.3234 770.2125,382.9734 Q770.425,382.7609 770.5375,382.6984 Q770.6625,382.6359 770.825,382.6359 Q771.0875,382.6359 771.2875,382.8484 Q771.5,383.0484 771.5,383.3234 Q771.5,383.5984 771.225,383.9234 Q770.825,384.3859 770.1875,384.6484 Q769.325,385.0109 768.2875,385.0109 Q767.075,385.0109 766.1125,384.5109 Q765.325,384.1109 764.775,383.2609 Q764.225,382.3984 764.225,381.3734 L764.225,380.4484 Q764.225,379.3859 764.7125,378.4734 Q765.2125,377.5484 766.0875,377.0609 Q766.9625,376.5609 767.95,376.5609 Q768.5375,376.5609 769.05,376.6984 Q769.575,376.8234 770.0125,377.1109 Z " fill="#000000"/><text fill="#000000" font-family="sans-serif" font-size="11.2" lengthAdjust="spacing" textLength="59.2" x="784.2" y="385.0484">MainActivity</text><line style="stroke:#181818;stroke-width:0.4000000000000001;" x1="709.6" x2="892" y1="393.2109" y2="393.2109"/><rect fill="none" height="4.8" style="stroke:#C82930;stroke-width:0.8000000000000002;" width="4.8" x="715.2" y="402.6594"/><text fill="#000000" font-family="sans-serif" font-size="11.2" lengthAdjust="spacing" textLength="136.8" x="724.8" y="408.4969">ActivityMainBinding binding</text><line style="stroke:#181818;stroke-width:0.4000000000000001;" x1="709.6" x2="892" y1="414.5078" y2="414.5078"/><ellipse cx="717.6" cy="426.3563" fill="#84BE84" rx="2.4" ry="2.4" style="stroke:#038048;stroke-width:0.8000000000000002;"/><text fill="#000000" font-family="sans-serif" font-size="11.2" lengthAdjust="spacing" textLength="120.8" x="724.8" y="429.7938">void onCreate(Bundle?)</text><ellipse cx="717.6" cy="441.2531" fill="#84BE84" rx="2.4" ry="2.4" style="stroke:#038048;stroke-width:0.8000000000000002;"/><text fill="#000000" font-family="sans-serif" font-size="11.2" lengthAdjust="spacing" textLength="163.2" x="724.8" y="444.6906">Boolean onSupportNavigateUp()</text></g><!--class Juego1Fragment--><g id="elem_Juego1Fragment"><rect codeLine="101" fill="#F1F1F1" height="83.0906" id="Juego1Fragment" rx="2" ry="2" style="stroke:#181818;stroke-width:0.4000000000000001;" width="310.4" x="1498.4" y="367.6109"/><ellipse cx="1607.4" cy="380.4109" fill="#ADD1B2" rx="8.8" ry="8.8" style="stroke:#181818;stroke-width:0.8000000000000002;"/><path d="M1609.6125,377.1109 Q1609.7375,376.9359 1609.8875,376.8484 Q1610.0375,376.7609 1610.2125,376.7609 Q1610.5125,376.7609 1610.7,376.9734 Q1610.8875,377.1734 1610.8875,377.6609 L1610.8875,378.8234 Q1610.8875,379.3109 1610.7,379.5234 Q1610.5125,379.7359 1610.2125,379.7359 Q1609.9375,379.7359 1609.775,379.5734 Q1609.6125,379.4234 1609.525,379.0109 Q1609.4875,378.7234 1609.3375,378.5734 Q1609.075,378.2734 1608.5875,378.0984 Q1608.1,377.9234 1607.6,377.9234 Q1606.9875,377.9234 1606.475,378.1859 Q1605.975,378.4484 1605.575,379.0484 Q1605.1875,379.6484 1605.1875,380.4734 L1605.1875,381.3484 Q1605.1875,382.3359 1605.9,382.9984 Q1606.6125,383.6484 1607.8875,383.6484 Q1608.6375,383.6484 1609.1625,383.4484 Q1609.475,383.3234 1609.8125,382.9734 Q1610.025,382.7609 1610.1375,382.6984 Q1610.2625,382.6359 1610.425,382.6359 Q1610.6875,382.6359 1610.8875,382.8484 Q1611.1,383.0484 1611.1,383.3234 Q1611.1,383.5984 1610.825,383.9234 Q1610.425,384.3859 1609.7875,384.6484 Q1608.925,385.0109 1607.8875,385.0109 Q1606.675,385.0109 1605.7125,384.5109 Q1604.925,384.1109 1604.375,383.2609 Q1603.825,382.3984 1603.825,381.3734 L1603.825,380.4484 Q1603.825,379.3859 1604.3125,378.4734 Q1604.8125,377.5484 1605.6875,377.0609 Q1606.5625,376.5609 1607.55,376.5609 Q1608.1375,376.5609 1608.65,376.6984 Q1609.175,376.8234 1609.6125,377.1109 Z " fill="#000000"/><text fill="#000000" font-family="sans-serif" font-size="11.2" lengthAdjust="spacing" textLength="85.6" x="1623.8" y="385.0484">Juego1Fragment</text><line style="stroke:#181818;stroke-width:0.4000000000000001;" x1="1499.2" x2="1808" y1="393.2109" y2="393.2109"/><rect fill="none" height="4.8" style="stroke:#C82930;stroke-width:0.8000000000000002;" width="4.8" x="1504.8" y="402.6594"/><text fill="#000000" font-family="sans-serif" font-size="11.2" lengthAdjust="spacing" textLength="176" x="1514.4" y="408.4969">FragmentJuego1Binding? _binding</text><rect fill="none" height="4.8" style="stroke:#C82930;stroke-width:0.8000000000000002;" width="4.8" x="1504.8" y="417.5563"/><text fill="#000000" font-family="sans-serif" font-size="11.2" lengthAdjust="spacing" textLength="36.8" x="1514.4" y="423.3938">binding</text><line style="stroke:#181818;stroke-width:0.4000000000000001;" x1="1499.2" x2="1808" y1="429.4047" y2="429.4047"/><ellipse cx="1507.2" cy="441.2531" fill="#84BE84" rx="2.4" ry="2.4" style="stroke:#038048;stroke-width:0.8000000000000002;"/><text fill="#000000" font-family="sans-serif" font-size="11.2" lengthAdjust="spacing" textLength="289.6" x="1514.4" y="444.6906">View? onCreateView(LayoutInflater,ViewGroup?,Bundle?)</text></g><!--class ViewPagerFragment--><g id="elem_ViewPagerFragment"><rect codeLine="131" fill="#F1F1F1" height="83.0906" id="ViewPagerFragment" rx="2" ry="2" style="stroke:#181818;stroke-width:0.4000000000000001;" width="310.4" x="1160" y="367.6109"/><ellipse cx="1260.6" cy="380.4109" fill="#ADD1B2" rx="8.8" ry="8.8" style="stroke:#181818;stroke-width:0.8000000000000002;"/><path d="M1262.8125,377.1109 Q1262.9375,376.9359 1263.0875,376.8484 Q1263.2375,376.7609 1263.4125,376.7609 Q1263.7125,376.7609 1263.9,376.9734 Q1264.0875,377.1734 1264.0875,377.6609 L1264.0875,378.8234 Q1264.0875,379.3109 1263.9,379.5234 Q1263.7125,379.7359 1263.4125,379.7359 Q1263.1375,379.7359 1262.975,379.5734 Q1262.8125,379.4234 1262.725,379.0109 Q1262.6875,378.7234 1262.5375,378.5734 Q1262.275,378.2734 1261.7875,378.0984 Q1261.3,377.9234 1260.8,377.9234 Q1260.1875,377.9234 1259.675,378.1859 Q1259.175,378.4484 1258.775,379.0484 Q1258.3875,379.6484 1258.3875,380.4734 L1258.3875,381.3484 Q1258.3875,382.3359 1259.1,382.9984 Q1259.8125,383.6484 1261.0875,383.6484 Q1261.8375,383.6484 1262.3625,383.4484 Q1262.675,383.3234 1263.0125,382.9734 Q1263.225,382.7609 1263.3375,382.6984 Q1263.4625,382.6359 1263.625,382.6359 Q1263.8875,382.6359 1264.0875,382.8484 Q1264.3,383.0484 1264.3,383.3234 Q1264.3,383.5984 1264.025,383.9234 Q1263.625,384.3859 1262.9875,384.6484 Q1262.125,385.0109 1261.0875,385.0109 Q1259.875,385.0109 1258.9125,384.5109 Q1258.125,384.1109 1257.575,383.2609 Q1257.025,382.3984 1257.025,381.3734 L1257.025,380.4484 Q1257.025,379.3859 1257.5125,378.4734 Q1258.0125,377.5484 1258.8875,377.0609 Q1259.7625,376.5609 1260.75,376.5609 Q1261.3375,376.5609 1261.85,376.6984 Q1262.375,376.8234 1262.8125,377.1109 Z " fill="#000000"/><text fill="#000000" font-family="sans-serif" font-size="11.2" lengthAdjust="spacing" textLength="102.4" x="1277" y="385.0484">ViewPagerFragment</text><line style="stroke:#181818;stroke-width:0.4000000000000001;" x1="1160.8" x2="1469.6" y1="393.2109" y2="393.2109"/><rect fill="none" height="4.8" style="stroke:#C82930;stroke-width:0.8000000000000002;" width="4.8" x="1166.4" y="402.6594"/><text fill="#000000" font-family="sans-serif" font-size="11.2" lengthAdjust="spacing" textLength="192.8" x="1176" y="408.4969">FragmentViewPagerBinding? _binding</text><rect fill="none" height="4.8" style="stroke:#C82930;stroke-width:0.8000000000000002;" width="4.8" x="1166.4" y="417.5563"/><text fill="#000000" font-family="sans-serif" font-size="11.2" lengthAdjust="spacing" textLength="36.8" x="1176" y="423.3938">binding</text><line style="stroke:#181818;stroke-width:0.4000000000000001;" x1="1160.8" x2="1469.6" y1="429.4047" y2="429.4047"/><ellipse cx="1168.8" cy="441.2531" fill="#84BE84" rx="2.4" ry="2.4" style="stroke:#038048;stroke-width:0.8000000000000002;"/><text fill="#000000" font-family="sans-serif" font-size="11.2" lengthAdjust="spacing" textLength="289.6" x="1176" y="444.6906">View? onCreateView(LayoutInflater,ViewGroup?,Bundle?)</text></g><!--class JuegoProvider$Companion--><g id="elem_JuegoProvider$Companion"><rect codeLine="138" fill="#F1F1F1" height="53.2969" id="JuegoProvider$Companion" rx="2" ry="2" style="stroke:#181818;stroke-width:0.4000000000000001;" width="162.4" x="550" y="543.2109"/><ellipse cx="562" cy="556.0109" fill="#ADD1B2" rx="8.8" ry="8.8" style="stroke:#181818;stroke-width:0.8000000000000002;"/><path d="M564.2125,552.7109 Q564.3375,552.5359 564.4875,552.4484 Q564.6375,552.3609 564.8125,552.3609 Q565.1125,552.3609 565.3,552.5734 Q565.4875,552.7734 565.4875,553.2609 L565.4875,554.4234 Q565.4875,554.9109 565.3,555.1234 Q565.1125,555.3359 564.8125,555.3359 Q564.5375,555.3359 564.375,555.1734 Q564.2125,555.0234 564.125,554.6109 Q564.0875,554.3234 563.9375,554.1734 Q563.675,553.8734 563.1875,553.6984 Q562.7,553.5234 562.2,553.5234 Q561.5875,553.5234 561.075,553.7859 Q560.575,554.0484 560.175,554.6484 Q559.7875,555.2484 559.7875,556.0734 L559.7875,556.9484 Q559.7875,557.9359 560.5,558.5984 Q561.2125,559.2484 562.4875,559.2484 Q563.2375,559.2484 563.7625,559.0484 Q564.075,558.9234 564.4125,558.5734 Q564.625,558.3609 564.7375,558.2984 Q564.8625,558.2359 565.025,558.2359 Q565.2875,558.2359 565.4875,558.4484 Q565.7,558.6484 565.7,558.9234 Q565.7,559.1984 565.425,559.5234 Q565.025,559.9859 564.3875,560.2484 Q563.525,560.6109 562.4875,560.6109 Q561.275,560.6109 560.3125,560.1109 Q559.525,559.7109 558.975,558.8609 Q558.425,557.9984 558.425,556.9734 L558.425,556.0484 Q558.425,554.9859 558.9125,554.0734 Q559.4125,553.1484 560.2875,552.6609 Q561.1625,552.1609 562.15,552.1609 Q562.7375,552.1609 563.25,552.2984 Q563.775,552.4234 564.2125,552.7109 Z " fill="#000000"/><text fill="#000000" font-family="sans-serif" font-size="11.2" lengthAdjust="spacing" textLength="136.8" x="573.2" y="560.6484">JuegoProvider$Companion</text><line style="stroke:#181818;stroke-width:0.4000000000000001;" x1="550.8" x2="711.6" y1="568.8109" y2="568.8109"/><ellipse cx="558.8" cy="580.6594" fill="none" rx="2.4" ry="2.4" style="stroke:#038048;stroke-width:0.8000000000000002;"/><text fill="#000000" font-family="sans-serif" font-size="11.2" lengthAdjust="spacing" textLength="100.8" x="566" y="584.0969">listaJuegosNintendo</text><line style="stroke:#181818;stroke-width:0.4000000000000001;" x1="550.8" x2="711.6" y1="590.1078" y2="590.1078"/></g><!--class JuegoProvider--><g id="elem_JuegoProvider"><rect codeLine="142" fill="#F1F1F1" height="38.4" id="JuegoProvider" rx="2" ry="2" style="stroke:#181818;stroke-width:0.4000000000000001;" width="98.4" x="582" y="390.0109"/><ellipse cx="594" cy="402.8109" fill="#ADD1B2" rx="8.8" ry="8.8" style="stroke:#181818;stroke-width:0.8000000000000002;"/><path d="M596.2125,399.5109 Q596.3375,399.3359 596.4875,399.2484 Q596.6375,399.1609 596.8125,399.1609 Q597.1125,399.1609 597.3,399.3734 Q597.4875,399.5734 597.4875,400.0609 L597.4875,401.2234 Q597.4875,401.7109 597.3,401.9234 Q597.1125,402.1359 596.8125,402.1359 Q596.5375,402.1359 596.375,401.9734 Q596.2125,401.8234 596.125,401.4109 Q596.0875,401.1234 595.9375,400.9734 Q595.675,400.6734 595.1875,400.4984 Q594.7,400.3234 594.2,400.3234 Q593.5875,400.3234 593.075,400.5859 Q592.575,400.8484 592.175,401.4484 Q591.7875,402.0484 591.7875,402.8734 L591.7875,403.7484 Q591.7875,404.7359 592.5,405.3984 Q593.2125,406.0484 594.4875,406.0484 Q595.2375,406.0484 595.7625,405.8484 Q596.075,405.7234 596.4125,405.3734 Q596.625,405.1609 596.7375,405.0984 Q596.8625,405.0359 597.025,405.0359 Q597.2875,405.0359 597.4875,405.2484 Q597.7,405.4484 597.7,405.7234 Q597.7,405.9984 597.425,406.3234 Q597.025,406.7859 596.3875,407.0484 Q595.525,407.4109 594.4875,407.4109 Q593.275,407.4109 592.3125,406.9109 Q591.525,406.5109 590.975,405.6609 Q590.425,404.7984 590.425,403.7734 L590.425,402.8484 Q590.425,401.7859 590.9125,400.8734 Q591.4125,399.9484 592.2875,399.4609 Q593.1625,398.9609 594.15,398.9609 Q594.7375,398.9609 595.25,399.0984 Q595.775,399.2234 596.2125,399.5109 Z " fill="#000000"/><text fill="#000000" font-family="sans-serif" font-size="11.2" lengthAdjust="spacing" textLength="72.8" x="605.2" y="407.4484">JuegoProvider</text><line style="stroke:#181818;stroke-width:0.4000000000000001;" x1="582.8" x2="679.6" y1="415.6109" y2="415.6109"/><line style="stroke:#181818;stroke-width:0.4000000000000001;" x1="582.8" x2="679.6" y1="422.0109" y2="422.0109"/></g><!--class ReciclerViewFragment--><g id="elem_ReciclerViewFragment"><rect codeLine="144" fill="#F1F1F1" height="142.6781" id="ReciclerViewFragment" rx="2" ry="2" style="stroke:#181818;stroke-width:0.4000000000000001;" width="310.4" x="243.2" y="338.0109"/><ellipse cx="338.6" cy="350.8109" fill="#ADD1B2" rx="8.8" ry="8.8" style="stroke:#181818;stroke-width:0.8000000000000002;"/><path d="M340.8125,347.5109 Q340.9375,347.3359 341.0875,347.2484 Q341.2375,347.1609 341.4125,347.1609 Q341.7125,347.1609 341.9,347.3734 Q342.0875,347.5734 342.0875,348.0609 L342.0875,349.2234 Q342.0875,349.7109 341.9,349.9234 Q341.7125,350.1359 341.4125,350.1359 Q341.1375,350.1359 340.975,349.9734 Q340.8125,349.8234 340.725,349.4109 Q340.6875,349.1234 340.5375,348.9734 Q340.275,348.6734 339.7875,348.4984 Q339.3,348.3234 338.8,348.3234 Q338.1875,348.3234 337.675,348.5859 Q337.175,348.8484 336.775,349.4484 Q336.3875,350.0484 336.3875,350.8734 L336.3875,351.7484 Q336.3875,352.7359 337.1,353.3984 Q337.8125,354.0484 339.0875,354.0484 Q339.8375,354.0484 340.3625,353.8484 Q340.675,353.7234 341.0125,353.3734 Q341.225,353.1609 341.3375,353.0984 Q341.4625,353.0359 341.625,353.0359 Q341.8875,353.0359 342.0875,353.2484 Q342.3,353.4484 342.3,353.7234 Q342.3,353.9984 342.025,354.3234 Q341.625,354.7859 340.9875,355.0484 Q340.125,355.4109 339.0875,355.4109 Q337.875,355.4109 336.9125,354.9109 Q336.125,354.5109 335.575,353.6609 Q335.025,352.7984 335.025,351.7734 L335.025,350.8484 Q335.025,349.7859 335.5125,348.8734 Q336.0125,347.9484 336.8875,347.4609 Q337.7625,346.9609 338.75,346.9609 Q339.3375,346.9609 339.85,347.0984 Q340.375,347.2234 340.8125,347.5109 Z " fill="#000000"/><text fill="#000000" font-family="sans-serif" font-size="11.2" lengthAdjust="spacing" textLength="112.8" x="355" y="355.4484">ReciclerViewFragment</text><line style="stroke:#181818;stroke-width:0.4000000000000001;" x1="244" x2="552.8" y1="363.6109" y2="363.6109"/><rect fill="none" height="4.8" style="stroke:#C82930;stroke-width:0.8000000000000002;" width="4.8" x="249.6" y="373.0594"/><text fill="#000000" font-family="sans-serif" font-size="11.2" lengthAdjust="spacing" textLength="209.6" x="259.2" y="378.8969">FragmentReciclerView2Binding? _binding</text><rect fill="none" height="4.8" style="stroke:#C82930;stroke-width:0.8000000000000002;" width="4.8" x="249.6" y="387.9563"/><text fill="#000000" font-family="sans-serif" font-size="11.2" lengthAdjust="spacing" textLength="36.8" x="259.2" y="393.7938">binding</text><line style="stroke:#181818;stroke-width:0.4000000000000001;" x1="244" x2="552.8" y1="399.8047" y2="399.8047"/><ellipse cx="252" cy="411.6531" fill="#84BE84" rx="2.4" ry="2.4" style="stroke:#038048;stroke-width:0.8000000000000002;"/><text fill="#000000" font-family="sans-serif" font-size="11.2" lengthAdjust="spacing" textLength="289.6" x="259.2" y="415.0906">View? onCreateView(LayoutInflater,ViewGroup?,Bundle?)</text><ellipse cx="252" cy="426.55" fill="#84BE84" rx="2.4" ry="2.4" style="stroke:#038048;stroke-width:0.8000000000000002;"/><text fill="#000000" font-family="sans-serif" font-size="11.2" lengthAdjust="spacing" textLength="176.8" x="259.2" y="429.9875">void onViewCreated(View,Bundle?)</text><rect fill="#F24D5C" height="4.8" style="stroke:#C82930;stroke-width:0.8000000000000002;" width="4.8" x="249.6" y="439.0469"/><text fill="#000000" font-family="sans-serif" font-size="11.2" lengthAdjust="spacing" textLength="128.8" x="259.2" y="444.8844">void iniciarRecyclerView()</text><rect fill="#F24D5C" height="4.8" style="stroke:#C82930;stroke-width:0.8000000000000002;" width="4.8" x="249.6" y="453.9438"/><text fill="#000000" font-family="sans-serif" font-size="11.2" lengthAdjust="spacing" textLength="139.2" x="259.2" y="459.7813">void onItemSelected(Datos)</text><ellipse cx="252" cy="471.2406" fill="#84BE84" rx="2.4" ry="2.4" style="stroke:#038048;stroke-width:0.8000000000000002;"/><text fill="#000000" font-family="sans-serif" font-size="11.2" lengthAdjust="spacing" textLength="107.2" x="259.2" y="474.6781">void onDestroyView()</text></g><!--class UserInfoFragment--><g id="elem_UserInfoFragment"><rect codeLine="12" fill="#F1F1F1" height="97.9875" id="UserInfoFragment" rx="2" ry="2" style="stroke:#181818;stroke-width:0.4000000000000001;" width="310.4" x="4685.6" y="360.4109"/><ellipse cx="4792.2" cy="373.2109" fill="#ADD1B2" rx="8.8" ry="8.8" style="stroke:#181818;stroke-width:0.8000000000000002;"/><path d="M4794.4125,369.9109 Q4794.5375,369.7359 4794.6875,369.6484 Q4794.8375,369.5609 4795.0125,369.5609 Q4795.3125,369.5609 4795.5,369.7734 Q4795.6875,369.9734 4795.6875,370.4609 L4795.6875,371.6234 Q4795.6875,372.1109 4795.5,372.3234 Q4795.3125,372.5359 4795.0125,372.5359 Q4794.7375,372.5359 4794.575,372.3734 Q4794.4125,372.2234 4794.325,371.8109 Q4794.2875,371.5234 4794.1375,371.3734 Q4793.875,371.0734 4793.3875,370.8984 Q4792.9,370.7234 4792.4,370.7234 Q4791.7875,370.7234 4791.275,370.9859 Q4790.775,371.2484 4790.375,371.8484 Q4789.9875,372.4484 4789.9875,373.2734 L4789.9875,374.1484 Q4789.9875,375.1359 4790.7,375.7984 Q4791.4125,376.4484 4792.6875,376.4484 Q4793.4375,376.4484 4793.9625,376.2484 Q4794.275,376.1234 4794.6125,375.7734 Q4794.825,375.5609 4794.9375,375.4984 Q4795.0625,375.4359 4795.225,375.4359 Q4795.4875,375.4359 4795.6875,375.6484 Q4795.9,375.8484 4795.9,376.1234 Q4795.9,376.3984 4795.625,376.7234 Q4795.225,377.1859 4794.5875,377.4484 Q4793.725,377.8109 4792.6875,377.8109 Q4791.475,377.8109 4790.5125,377.3109 Q4789.725,376.9109 4789.175,376.0609 Q4788.625,375.1984 4788.625,374.1734 L4788.625,373.2484 Q4788.625,372.1859 4789.1125,371.2734 Q4789.6125,370.3484 4790.4875,369.8609 Q4791.3625,369.3609 4792.35,369.3609 Q4792.9375,369.3609 4793.45,369.4984 Q4793.975,369.6234 4794.4125,369.9109 Z " fill="#000000"/><text fill="#000000" font-family="sans-serif" font-size="11.2" lengthAdjust="spacing" textLength="90.4" x="4808.6" y="377.8484">UserInfoFragment</text><line style="stroke:#181818;stroke-width:0.4000000000000001;" x1="4686.4" x2="4995.2" y1="386.0109" y2="386.0109"/><rect fill="none" height="4.8" style="stroke:#C82930;stroke-width:0.8000000000000002;" width="4.8" x="4692" y="395.4594"/><text fill="#000000" font-family="sans-serif" font-size="11.2" lengthAdjust="spacing" textLength="180.8" x="4701.6" y="401.2969">FragmentUserInfoBinding? _binding</text><rect fill="none" height="4.8" style="stroke:#C82930;stroke-width:0.8000000000000002;" width="4.8" x="4692" y="410.3563"/><text fill="#000000" font-family="sans-serif" font-size="11.2" lengthAdjust="spacing" textLength="36.8" x="4701.6" y="416.1938">binding</text><line style="stroke:#181818;stroke-width:0.4000000000000001;" x1="4686.4" x2="4995.2" y1="422.2047" y2="422.2047"/><ellipse cx="4694.4" cy="434.0531" fill="#84BE84" rx="2.4" ry="2.4" style="stroke:#038048;stroke-width:0.8000000000000002;"/><text fill="#000000" font-family="sans-serif" font-size="11.2" lengthAdjust="spacing" textLength="289.6" x="4701.6" y="437.4906">View? onCreateView(LayoutInflater,ViewGroup?,Bundle?)</text><ellipse cx="4694.4" cy="448.95" fill="#84BE84" rx="2.4" ry="2.4" style="stroke:#038048;stroke-width:0.8000000000000002;"/><text fill="#000000" font-family="sans-serif" font-size="11.2" lengthAdjust="spacing" textLength="176.8" x="4701.6" y="452.3875">void onViewCreated(View,Bundle?)</text></g><!--class JuegoViewHolder--><g id="elem_JuegoViewHolder"><rect codeLine="20" fill="#F1F1F1" height="68.1938" id="JuegoViewHolder" rx="2" ry="2" style="stroke:#181818;stroke-width:0.4000000000000001;" width="192.8" x="2911.6" y="536.0109"/><ellipse cx="2961.4" cy="548.8109" fill="#ADD1B2" rx="8.8" ry="8.8" style="stroke:#181818;stroke-width:0.8000000000000002;"/><path d="M2963.6125,545.5109 Q2963.7375,545.3359 2963.8875,545.2484 Q2964.0375,545.1609 2964.2125,545.1609 Q2964.5125,545.1609 2964.7,545.3734 Q2964.8875,545.5734 2964.8875,546.0609 L2964.8875,547.2234 Q2964.8875,547.7109 2964.7,547.9234 Q2964.5125,548.1359 2964.2125,548.1359 Q2963.9375,548.1359 2963.775,547.9734 Q2963.6125,547.8234 2963.525,547.4109 Q2963.4875,547.1234 2963.3375,546.9734 Q2963.075,546.6734 2962.5875,546.4984 Q2962.1,546.3234 2961.6,546.3234 Q2960.9875,546.3234 2960.475,546.5859 Q2959.975,546.8484 2959.575,547.4484 Q2959.1875,548.0484 2959.1875,548.8734 L2959.1875,549.7484 Q2959.1875,550.7359 2959.9,551.3984 Q2960.6125,552.0484 2961.8875,552.0484 Q2962.6375,552.0484 2963.1625,551.8484 Q2963.475,551.7234 2963.8125,551.3734 Q2964.025,551.1609 2964.1375,551.0984 Q2964.2625,551.0359 2964.425,551.0359 Q2964.6875,551.0359 2964.8875,551.2484 Q2965.1,551.4484 2965.1,551.7234 Q2965.1,551.9984 2964.825,552.3234 Q2964.425,552.7859 2963.7875,553.0484 Q2962.925,553.4109 2961.8875,553.4109 Q2960.675,553.4109 2959.7125,552.9109 Q2958.925,552.5109 2958.375,551.6609 Q2957.825,550.7984 2957.825,549.7734 L2957.825,548.8484 Q2957.825,547.7859 2958.3125,546.8734 Q2958.8125,545.9484 2959.6875,545.4609 Q2960.5625,544.9609 2961.55,544.9609 Q2962.1375,544.9609 2962.65,545.0984 Q2963.175,545.2234 2963.6125,545.5109 Z " fill="#000000"/><text fill="#000000" font-family="sans-serif" font-size="11.2" lengthAdjust="spacing" textLength="86.4" x="2977.8" y="553.4484">JuegoViewHolder</text><line style="stroke:#181818;stroke-width:0.4000000000000001;" x1="2912.4" x2="3103.6" y1="561.6109" y2="561.6109"/><ellipse cx="2920.4" cy="573.4594" fill="none" rx="2.4" ry="2.4" style="stroke:#038048;stroke-width:0.8000000000000002;"/><text fill="#000000" font-family="sans-serif" font-size="11.2" lengthAdjust="spacing" textLength="36.8" x="2927.6" y="576.8969">binding</text><line style="stroke:#181818;stroke-width:0.4000000000000001;" x1="2912.4" x2="3103.6" y1="582.9078" y2="582.9078"/><ellipse cx="2920.4" cy="594.7563" fill="#84BE84" rx="2.4" ry="2.4" style="stroke:#038048;stroke-width:0.8000000000000002;"/><text fill="#000000" font-family="sans-serif" font-size="11.2" lengthAdjust="spacing" textLength="172" x="2927.6" y="598.1938">void render(Datos,(Datos) -&gt; Unit)</text></g><!--class DetailItemFragment--><g id="elem_DetailItemFragment"><rect codeLine="35" fill="#F1F1F1" height="112.8844" id="DetailItemFragment" rx="2" ry="2" style="stroke:#181818;stroke-width:0.4000000000000001;" width="304" x="4353.6" y="352.8109"/><ellipse cx="4453" cy="365.6109" fill="#ADD1B2" rx="8.8" ry="8.8" style="stroke:#181818;stroke-width:0.8000000000000002;"/><path d="M4455.2125,362.3109 Q4455.3375,362.1359 4455.4875,362.0484 Q4455.6375,361.9609 4455.8125,361.9609 Q4456.1125,361.9609 4456.3,362.1734 Q4456.4875,362.3734 4456.4875,362.8609 L4456.4875,364.0234 Q4456.4875,364.5109 4456.3,364.7234 Q4456.1125,364.9359 4455.8125,364.9359 Q4455.5375,364.9359 4455.375,364.7734 Q4455.2125,364.6234 4455.125,364.2109 Q4455.0875,363.9234 4454.9375,363.7734 Q4454.675,363.4734 4454.1875,363.2984 Q4453.7,363.1234 4453.2,363.1234 Q4452.5875,363.1234 4452.075,363.3859 Q4451.575,363.6484 4451.175,364.2484 Q4450.7875,364.8484 4450.7875,365.6734 L4450.7875,366.5484 Q4450.7875,367.5359 4451.5,368.1984 Q4452.2125,368.8484 4453.4875,368.8484 Q4454.2375,368.8484 4454.7625,368.6484 Q4455.075,368.5234 4455.4125,368.1734 Q4455.625,367.9609 4455.7375,367.8984 Q4455.8625,367.8359 4456.025,367.8359 Q4456.2875,367.8359 4456.4875,368.0484 Q4456.7,368.2484 4456.7,368.5234 Q4456.7,368.7984 4456.425,369.1234 Q4456.025,369.5859 4455.3875,369.8484 Q4454.525,370.2109 4453.4875,370.2109 Q4452.275,370.2109 4451.3125,369.7109 Q4450.525,369.3109 4449.975,368.4609 Q4449.425,367.5984 4449.425,366.5734 L4449.425,365.6484 Q4449.425,364.5859 4449.9125,363.6734 Q4450.4125,362.7484 4451.2875,362.2609 Q4452.1625,361.7609 4453.15,361.7609 Q4453.7375,361.7609 4454.25,361.8984 Q4454.775,362.0234 4455.2125,362.3109 Z " fill="#000000"/><text fill="#000000" font-family="sans-serif" font-size="11.2" lengthAdjust="spacing" textLength="98.4" x="4469.4" y="370.2484">DetailItemFragment</text><line style="stroke:#181818;stroke-width:0.4000000000000001;" x1="4354.4" x2="4656.8" y1="378.4109" y2="378.4109"/><rect fill="none" height="4.8" style="stroke:#C82930;stroke-width:0.8000000000000002;" width="4.8" x="4360" y="387.8594"/><text fill="#000000" font-family="sans-serif" font-size="11.2" lengthAdjust="spacing" textLength="188.8" x="4369.6" y="393.6969">FragmentDetailItemBinding? _binding</text><rect fill="none" height="4.8" style="stroke:#C82930;stroke-width:0.8000000000000002;" width="4.8" x="4360" y="402.7563"/><text fill="#000000" font-family="sans-serif" font-size="11.2" lengthAdjust="spacing" textLength="36.8" x="4369.6" y="408.5938">binding</text><line style="stroke:#181818;stroke-width:0.4000000000000001;" x1="4354.4" x2="4656.8" y1="414.6047" y2="414.6047"/><ellipse cx="4362.4" cy="426.4531" fill="#84BE84" rx="2.4" ry="2.4" style="stroke:#038048;stroke-width:0.8000000000000002;"/><text fill="#000000" font-family="sans-serif" font-size="11.2" lengthAdjust="spacing" textLength="283.2" x="4369.6" y="429.8906">View onCreateView(LayoutInflater,ViewGroup?,Bundle?)</text><ellipse cx="4362.4" cy="441.35" fill="#84BE84" rx="2.4" ry="2.4" style="stroke:#038048;stroke-width:0.8000000000000002;"/><text fill="#000000" font-family="sans-serif" font-size="11.2" lengthAdjust="spacing" textLength="176.8" x="4369.6" y="444.7875">void onViewCreated(View,Bundle?)</text><ellipse cx="4362.4" cy="456.2469" fill="#84BE84" rx="2.4" ry="2.4" style="stroke:#038048;stroke-width:0.8000000000000002;"/><text fill="#000000" font-family="sans-serif" font-size="11.2" lengthAdjust="spacing" textLength="107.2" x="4369.6" y="459.6844">void onDestroyView()</text></g><!--class ViewPagerAdapter--><g id="elem_ViewPagerAdapter"><rect codeLine="46" fill="#F1F1F1" height="68.1938" id="ViewPagerAdapter" rx="2" ry="2" style="stroke:#181818;stroke-width:0.4000000000000001;" width="173.6" x="5024.4" y="375.2109"/><ellipse cx="5061" cy="388.0109" fill="#ADD1B2" rx="8.8" ry="8.8" style="stroke:#181818;stroke-width:0.8000000000000002;"/><path d="M5063.2125,384.7109 Q5063.3375,384.5359 5063.4875,384.4484 Q5063.6375,384.3609 5063.8125,384.3609 Q5064.1125,384.3609 5064.3,384.5734 Q5064.4875,384.7734 5064.4875,385.2609 L5064.4875,386.4234 Q5064.4875,386.9109 5064.3,387.1234 Q5064.1125,387.3359 5063.8125,387.3359 Q5063.5375,387.3359 5063.375,387.1734 Q5063.2125,387.0234 5063.125,386.6109 Q5063.0875,386.3234 5062.9375,386.1734 Q5062.675,385.8734 5062.1875,385.6984 Q5061.7,385.5234 5061.2,385.5234 Q5060.5875,385.5234 5060.075,385.7859 Q5059.575,386.0484 5059.175,386.6484 Q5058.7875,387.2484 5058.7875,388.0734 L5058.7875,388.9484 Q5058.7875,389.9359 5059.5,390.5984 Q5060.2125,391.2484 5061.4875,391.2484 Q5062.2375,391.2484 5062.7625,391.0484 Q5063.075,390.9234 5063.4125,390.5734 Q5063.625,390.3609 5063.7375,390.2984 Q5063.8625,390.2359 5064.025,390.2359 Q5064.2875,390.2359 5064.4875,390.4484 Q5064.7,390.6484 5064.7,390.9234 Q5064.7,391.1984 5064.425,391.5234 Q5064.025,391.9859 5063.3875,392.2484 Q5062.525,392.6109 5061.4875,392.6109 Q5060.275,392.6109 5059.3125,392.1109 Q5058.525,391.7109 5057.975,390.8609 Q5057.425,389.9984 5057.425,388.9734 L5057.425,388.0484 Q5057.425,386.9859 5057.9125,386.0734 Q5058.4125,385.1484 5059.2875,384.6609 Q5060.1625,384.1609 5061.15,384.1609 Q5061.7375,384.1609 5062.25,384.2984 Q5062.775,384.4234 5063.2125,384.7109 Z " fill="#000000"/><text fill="#000000" font-family="sans-serif" font-size="11.2" lengthAdjust="spacing" textLength="93.6" x="5077.4" y="392.6484">ViewPagerAdapter</text><line style="stroke:#181818;stroke-width:0.4000000000000001;" x1="5025.2" x2="5197.2" y1="400.8109" y2="400.8109"/><line style="stroke:#181818;stroke-width:0.4000000000000001;" x1="5025.2" x2="5197.2" y1="407.2109" y2="407.2109"/><ellipse cx="5033.2" cy="419.0594" fill="#84BE84" rx="2.4" ry="2.4" style="stroke:#038048;stroke-width:0.8000000000000002;"/><text fill="#000000" font-family="sans-serif" font-size="11.2" lengthAdjust="spacing" textLength="90.4" x="5040.4" y="422.4969">Int getItemCount()</text><ellipse cx="5033.2" cy="433.9563" fill="#84BE84" rx="2.4" ry="2.4" style="stroke:#038048;stroke-width:0.8000000000000002;"/><text fill="#000000" font-family="sans-serif" font-size="11.2" lengthAdjust="spacing" textLength="152.8" x="5040.4" y="437.3938">Fragment createFragment(Int)</text></g><!--class MainFragment--><g id="elem_MainFragment"><rect codeLine="51" fill="#F1F1F1" height="97.9875" id="MainFragment" rx="2" ry="2" style="stroke:#181818;stroke-width:0.4000000000000001;" width="184" x="2794.4" y="360.4109"/><ellipse cx="2846.6" cy="373.2109" fill="#ADD1B2" rx="8.8" ry="8.8" style="stroke:#181818;stroke-width:0.8000000000000002;"/><path d="M2848.8125,369.9109 Q2848.9375,369.7359 2849.0875,369.6484 Q2849.2375,369.5609 2849.4125,369.5609 Q2849.7125,369.5609 2849.9,369.7734 Q2850.0875,369.9734 2850.0875,370.4609 L2850.0875,371.6234 Q2850.0875,372.1109 2849.9,372.3234 Q2849.7125,372.5359 2849.4125,372.5359 Q2849.1375,372.5359 2848.975,372.3734 Q2848.8125,372.2234 2848.725,371.8109 Q2848.6875,371.5234 2848.5375,371.3734 Q2848.275,371.0734 2847.7875,370.8984 Q2847.3,370.7234 2846.8,370.7234 Q2846.1875,370.7234 2845.675,370.9859 Q2845.175,371.2484 2844.775,371.8484 Q2844.3875,372.4484 2844.3875,373.2734 L2844.3875,374.1484 Q2844.3875,375.1359 2845.1,375.7984 Q2845.8125,376.4484 2847.0875,376.4484 Q2847.8375,376.4484 2848.3625,376.2484 Q2848.675,376.1234 2849.0125,375.7734 Q2849.225,375.5609 2849.3375,375.4984 Q2849.4625,375.4359 2849.625,375.4359 Q2849.8875,375.4359 2850.0875,375.6484 Q2850.3,375.8484 2850.3,376.1234 Q2850.3,376.3984 2850.025,376.7234 Q2849.625,377.1859 2848.9875,377.4484 Q2848.125,377.8109 2847.0875,377.8109 Q2845.875,377.8109 2844.9125,377.3109 Q2844.125,376.9109 2843.575,376.0609 Q2843.025,375.1984 2843.025,374.1734 L2843.025,373.2484 Q2843.025,372.1859 2843.5125,371.2734 Q2844.0125,370.3484 2844.8875,369.8609 Q2845.7625,369.3609 2846.75,369.3609 Q2847.3375,369.3609 2847.85,369.4984 Q2848.375,369.6234 2848.8125,369.9109 Z " fill="#000000"/><text fill="#000000" font-family="sans-serif" font-size="11.2" lengthAdjust="spacing" textLength="72.8" x="2863" y="377.8484">MainFragment</text><line style="stroke:#181818;stroke-width:0.4000000000000001;" x1="2795.2" x2="2977.6" y1="386.0109" y2="386.0109"/><rect fill="none" height="4.8" style="stroke:#C82930;stroke-width:0.8000000000000002;" width="4.8" x="2800.8" y="395.4594"/><text fill="#000000" font-family="sans-serif" font-size="11.2" lengthAdjust="spacing" textLength="163.2" x="2810.4" y="401.2969">FragmentMainBinding? _binding</text><rect fill="none" height="4.8" style="stroke:#C82930;stroke-width:0.8000000000000002;" width="4.8" x="2800.8" y="410.3563"/><text fill="#000000" font-family="sans-serif" font-size="11.2" lengthAdjust="spacing" textLength="36.8" x="2810.4" y="416.1938">binding</text><line style="stroke:#181818;stroke-width:0.4000000000000001;" x1="2795.2" x2="2977.6" y1="422.2047" y2="422.2047"/><ellipse cx="2803.2" cy="434.0531" fill="#84BE84" rx="2.4" ry="2.4" style="stroke:#038048;stroke-width:0.8000000000000002;"/><text fill="#000000" font-family="sans-serif" font-size="11.2" lengthAdjust="spacing" textLength="120.8" x="2810.4" y="437.4906">void onCreate(Bundle?)</text><ellipse cx="2803.2" cy="448.95" fill="#84BE84" rx="2.4" ry="2.4" style="stroke:#038048;stroke-width:0.8000000000000002;"/><text fill="#000000" font-family="sans-serif" font-size="11.2" lengthAdjust="spacing" textLength="84" x="2810.4" y="452.3875">void onDestroy()</text></g><!--class LoginFragment--><g id="elem_LoginFragment"><rect codeLine="67" fill="#F1F1F1" height="83.0906" id="LoginFragment" rx="2" ry="2" style="stroke:#181818;stroke-width:0.4000000000000001;" width="310.4" x="4015.2" y="367.6109"/><ellipse cx="4128.6" cy="380.4109" fill="#ADD1B2" rx="8.8" ry="8.8" style="stroke:#181818;stroke-width:0.8000000000000002;"/><path d="M4130.8125,377.1109 Q4130.9375,376.9359 4131.0875,376.8484 Q4131.2375,376.7609 4131.4125,376.7609 Q4131.7125,376.7609 4131.9,376.9734 Q4132.0875,377.1734 4132.0875,377.6609 L4132.0875,378.8234 Q4132.0875,379.3109 4131.9,379.5234 Q4131.7125,379.7359 4131.4125,379.7359 Q4131.1375,379.7359 4130.975,379.5734 Q4130.8125,379.4234 4130.725,379.0109 Q4130.6875,378.7234 4130.5375,378.5734 Q4130.275,378.2734 4129.7875,378.0984 Q4129.3,377.9234 4128.8,377.9234 Q4128.1875,377.9234 4127.675,378.1859 Q4127.175,378.4484 4126.775,379.0484 Q4126.3875,379.6484 4126.3875,380.4734 L4126.3875,381.3484 Q4126.3875,382.3359 4127.1,382.9984 Q4127.8125,383.6484 4129.0875,383.6484 Q4129.8375,383.6484 4130.3625,383.4484 Q4130.675,383.3234 4131.0125,382.9734 Q4131.225,382.7609 4131.3375,382.6984 Q4131.4625,382.6359 4131.625,382.6359 Q4131.8875,382.6359 4132.0875,382.8484 Q4132.3,383.0484 4132.3,383.3234 Q4132.3,383.5984 4132.025,383.9234 Q4131.625,384.3859 4130.9875,384.6484 Q4130.125,385.0109 4129.0875,385.0109 Q4127.875,385.0109 4126.9125,384.5109 Q4126.125,384.1109 4125.575,383.2609 Q4125.025,382.3984 4125.025,381.3734 L4125.025,380.4484 Q4125.025,379.3859 4125.5125,378.4734 Q4126.0125,377.5484 4126.8875,377.0609 Q4127.7625,376.5609 4128.75,376.5609 Q4129.3375,376.5609 4129.85,376.6984 Q4130.375,376.8234 4130.8125,377.1109 Z " fill="#000000"/><text fill="#000000" font-family="sans-serif" font-size="11.2" lengthAdjust="spacing" textLength="76.8" x="4145" y="385.0484">LoginFragment</text><line style="stroke:#181818;stroke-width:0.4000000000000001;" x1="4016" x2="4324.8" y1="393.2109" y2="393.2109"/><rect fill="none" height="4.8" style="stroke:#C82930;stroke-width:0.8000000000000002;" width="4.8" x="4021.6" y="402.6594"/><text fill="#000000" font-family="sans-serif" font-size="11.2" lengthAdjust="spacing" textLength="167.2" x="4031.2" y="408.4969">FragmentLoginBinding? _binding</text><rect fill="none" height="4.8" style="stroke:#C82930;stroke-width:0.8000000000000002;" width="4.8" x="4021.6" y="417.5563"/><text fill="#000000" font-family="sans-serif" font-size="11.2" lengthAdjust="spacing" textLength="36.8" x="4031.2" y="423.3938">binding</text><line style="stroke:#181818;stroke-width:0.4000000000000001;" x1="4016" x2="4324.8" y1="429.4047" y2="429.4047"/><ellipse cx="4024" cy="441.2531" fill="#84BE84" rx="2.4" ry="2.4" style="stroke:#038048;stroke-width:0.8000000000000002;"/><text fill="#000000" font-family="sans-serif" font-size="11.2" lengthAdjust="spacing" textLength="289.6" x="4031.2" y="444.6906">View? onCreateView(LayoutInflater,ViewGroup?,Bundle?)</text></g><!--class MenuFragment--><g id="elem_MenuFragment"><rect codeLine="74" fill="#F1F1F1" height="83.0906" id="MenuFragment" rx="2" ry="2" style="stroke:#181818;stroke-width:0.4000000000000001;" width="310.4" x="3676.8" y="367.6109"/><ellipse cx="3790.2" cy="380.4109" fill="#ADD1B2" rx="8.8" ry="8.8" style="stroke:#181818;stroke-width:0.8000000000000002;"/><path d="M3792.4125,377.1109 Q3792.5375,376.9359 3792.6875,376.8484 Q3792.8375,376.7609 3793.0125,376.7609 Q3793.3125,376.7609 3793.5,376.9734 Q3793.6875,377.1734 3793.6875,377.6609 L3793.6875,378.8234 Q3793.6875,379.3109 3793.5,379.5234 Q3793.3125,379.7359 3793.0125,379.7359 Q3792.7375,379.7359 3792.575,379.5734 Q3792.4125,379.4234 3792.325,379.0109 Q3792.2875,378.7234 3792.1375,378.5734 Q3791.875,378.2734 3791.3875,378.0984 Q3790.9,377.9234 3790.4,377.9234 Q3789.7875,377.9234 3789.275,378.1859 Q3788.775,378.4484 3788.375,379.0484 Q3787.9875,379.6484 3787.9875,380.4734 L3787.9875,381.3484 Q3787.9875,382.3359 3788.7,382.9984 Q3789.4125,383.6484 3790.6875,383.6484 Q3791.4375,383.6484 3791.9625,383.4484 Q3792.275,383.3234 3792.6125,382.9734 Q3792.825,382.7609 3792.9375,382.6984 Q3793.0625,382.6359 3793.225,382.6359 Q3793.4875,382.6359 3793.6875,382.8484 Q3793.9,383.0484 3793.9,383.3234 Q3793.9,383.5984 3793.625,383.9234 Q3793.225,384.3859 3792.5875,384.6484 Q3791.725,385.0109 3790.6875,385.0109 Q3789.475,385.0109 3788.5125,384.5109 Q3787.725,384.1109 3787.175,383.2609 Q3786.625,382.3984 3786.625,381.3734 L3786.625,380.4484 Q3786.625,379.3859 3787.1125,378.4734 Q3787.6125,377.5484 3788.4875,377.0609 Q3789.3625,376.5609 3790.35,376.5609 Q3790.9375,376.5609 3791.45,376.6984 Q3791.975,376.8234 3792.4125,377.1109 Z " fill="#000000"/><text fill="#000000" font-family="sans-serif" font-size="11.2" lengthAdjust="spacing" textLength="76.8" x="3806.6" y="385.0484">MenuFragment</text><line style="stroke:#181818;stroke-width:0.4000000000000001;" x1="3677.6" x2="3986.4" y1="393.2109" y2="393.2109"/><rect fill="none" height="4.8" style="stroke:#C82930;stroke-width:0.8000000000000002;" width="4.8" x="3683.2" y="402.6594"/><text fill="#000000" font-family="sans-serif" font-size="11.2" lengthAdjust="spacing" textLength="167.2" x="3692.8" y="408.4969">FragmentMenuBinding? _binding</text><rect fill="none" height="4.8" style="stroke:#C82930;stroke-width:0.8000000000000002;" width="4.8" x="3683.2" y="417.5563"/><text fill="#000000" font-family="sans-serif" font-size="11.2" lengthAdjust="spacing" textLength="36.8" x="3692.8" y="423.3938">binding</text><line style="stroke:#181818;stroke-width:0.4000000000000001;" x1="3677.6" x2="3986.4" y1="429.4047" y2="429.4047"/><ellipse cx="3685.6" cy="441.2531" fill="#84BE84" rx="2.4" ry="2.4" style="stroke:#038048;stroke-width:0.8000000000000002;"/><text fill="#000000" font-family="sans-serif" font-size="11.2" lengthAdjust="spacing" textLength="289.6" x="3692.8" y="444.6906">View? onCreateView(LayoutInflater,ViewGroup?,Bundle?)</text></g><!--class CreditFragment$Companion--><g id="elem_CreditFragment$Companion"><rect codeLine="81" fill="#F1F1F1" height="53.2969" id="CreditFragment$Companion" rx="2" ry="2" style="stroke:#181818;stroke-width:0.4000000000000001;" width="168.8" x="3412.4" y="543.2109"/><ellipse cx="3424.4" cy="556.0109" fill="#ADD1B2" rx="8.8" ry="8.8" style="stroke:#181818;stroke-width:0.8000000000000002;"/><path d="M3426.6125,552.7109 Q3426.7375,552.5359 3426.8875,552.4484 Q3427.0375,552.3609 3427.2125,552.3609 Q3427.5125,552.3609 3427.7,552.5734 Q3427.8875,552.7734 3427.8875,553.2609 L3427.8875,554.4234 Q3427.8875,554.9109 3427.7,555.1234 Q3427.5125,555.3359 3427.2125,555.3359 Q3426.9375,555.3359 3426.775,555.1734 Q3426.6125,555.0234 3426.525,554.6109 Q3426.4875,554.3234 3426.3375,554.1734 Q3426.075,553.8734 3425.5875,553.6984 Q3425.1,553.5234 3424.6,553.5234 Q3423.9875,553.5234 3423.475,553.7859 Q3422.975,554.0484 3422.575,554.6484 Q3422.1875,555.2484 3422.1875,556.0734 L3422.1875,556.9484 Q3422.1875,557.9359 3422.9,558.5984 Q3423.6125,559.2484 3424.8875,559.2484 Q3425.6375,559.2484 3426.1625,559.0484 Q3426.475,558.9234 3426.8125,558.5734 Q3427.025,558.3609 3427.1375,558.2984 Q3427.2625,558.2359 3427.425,558.2359 Q3427.6875,558.2359 3427.8875,558.4484 Q3428.1,558.6484 3428.1,558.9234 Q3428.1,559.1984 3427.825,559.5234 Q3427.425,559.9859 3426.7875,560.2484 Q3425.925,560.6109 3424.8875,560.6109 Q3423.675,560.6109 3422.7125,560.1109 Q3421.925,559.7109 3421.375,558.8609 Q3420.825,557.9984 3420.825,556.9734 L3420.825,556.0484 Q3420.825,554.9859 3421.3125,554.0734 Q3421.8125,553.1484 3422.6875,552.6609 Q3423.5625,552.1609 3424.55,552.1609 Q3425.1375,552.1609 3425.65,552.2984 Q3426.175,552.4234 3426.6125,552.7109 Z " fill="#000000"/><text fill="#000000" font-family="sans-serif" font-size="11.2" lengthAdjust="spacing" textLength="143.2" x="3435.6" y="560.6484">CreditFragment$Companion</text><line style="stroke:#181818;stroke-width:0.4000000000000001;" x1="3413.2" x2="3580.4" y1="568.8109" y2="568.8109"/><line style="stroke:#181818;stroke-width:0.4000000000000001;" x1="3413.2" x2="3580.4" y1="575.2109" y2="575.2109"/><ellipse cx="3421.2" cy="587.0594" fill="#84BE84" rx="2.4" ry="2.4" style="stroke:#038048;stroke-width:0.8000000000000002;"/><text fill="#000000" font-family="sans-serif" font-size="11.2" lengthAdjust="spacing" textLength="94.4" x="3428.4" y="590.4969">void newInstance()</text></g><!--class CreditFragment--><g id="elem_CreditFragment"><rect codeLine="85" fill="#F1F1F1" height="112.8844" id="CreditFragment" rx="2" ry="2" style="stroke:#181818;stroke-width:0.4000000000000001;" width="304" x="3344.8" y="352.8109"/><ellipse cx="3453.8" cy="365.6109" fill="#ADD1B2" rx="8.8" ry="8.8" style="stroke:#181818;stroke-width:0.8000000000000002;"/><path d="M3456.0125,362.3109 Q3456.1375,362.1359 3456.2875,362.0484 Q3456.4375,361.9609 3456.6125,361.9609 Q3456.9125,361.9609 3457.1,362.1734 Q3457.2875,362.3734 3457.2875,362.8609 L3457.2875,364.0234 Q3457.2875,364.5109 3457.1,364.7234 Q3456.9125,364.9359 3456.6125,364.9359 Q3456.3375,364.9359 3456.175,364.7734 Q3456.0125,364.6234 3455.925,364.2109 Q3455.8875,363.9234 3455.7375,363.7734 Q3455.475,363.4734 3454.9875,363.2984 Q3454.5,363.1234 3454,363.1234 Q3453.3875,363.1234 3452.875,363.3859 Q3452.375,363.6484 3451.975,364.2484 Q3451.5875,364.8484 3451.5875,365.6734 L3451.5875,366.5484 Q3451.5875,367.5359 3452.3,368.1984 Q3453.0125,368.8484 3454.2875,368.8484 Q3455.0375,368.8484 3455.5625,368.6484 Q3455.875,368.5234 3456.2125,368.1734 Q3456.425,367.9609 3456.5375,367.8984 Q3456.6625,367.8359 3456.825,367.8359 Q3457.0875,367.8359 3457.2875,368.0484 Q3457.5,368.2484 3457.5,368.5234 Q3457.5,368.7984 3457.225,369.1234 Q3456.825,369.5859 3456.1875,369.8484 Q3455.325,370.2109 3454.2875,370.2109 Q3453.075,370.2109 3452.1125,369.7109 Q3451.325,369.3109 3450.775,368.4609 Q3450.225,367.5984 3450.225,366.5734 L3450.225,365.6484 Q3450.225,364.5859 3450.7125,363.6734 Q3451.2125,362.7484 3452.0875,362.2609 Q3452.9625,361.7609 3453.95,361.7609 Q3454.5375,361.7609 3455.05,361.8984 Q3455.575,362.0234 3456.0125,362.3109 Z " fill="#000000"/><text fill="#000000" font-family="sans-serif" font-size="11.2" lengthAdjust="spacing" textLength="79.2" x="3470.2" y="370.2484">CreditFragment</text><line style="stroke:#181818;stroke-width:0.4000000000000001;" x1="3345.6" x2="3648" y1="378.4109" y2="378.4109"/><rect fill="none" height="4.8" style="stroke:#C82930;stroke-width:0.8000000000000002;" width="4.8" x="3351.2" y="387.8594"/><text fill="#000000" font-family="sans-serif" font-size="11.2" lengthAdjust="spacing" textLength="169.6" x="3360.8" y="393.6969">FragmentCreditBinding? _binding</text><rect fill="none" height="4.8" style="stroke:#C82930;stroke-width:0.8000000000000002;" width="4.8" x="3351.2" y="402.7563"/><text fill="#000000" font-family="sans-serif" font-size="11.2" lengthAdjust="spacing" textLength="36.8" x="3360.8" y="408.5938">binding</text><line style="stroke:#181818;stroke-width:0.4000000000000001;" x1="3345.6" x2="3648" y1="414.6047" y2="414.6047"/><ellipse cx="3353.6" cy="426.4531" fill="#84BE84" rx="2.4" ry="2.4" style="stroke:#038048;stroke-width:0.8000000000000002;"/><text fill="#000000" font-family="sans-serif" font-size="11.2" lengthAdjust="spacing" textLength="283.2" x="3360.8" y="429.8906">View onCreateView(LayoutInflater,ViewGroup?,Bundle?)</text><ellipse cx="3353.6" cy="441.35" fill="#84BE84" rx="2.4" ry="2.4" style="stroke:#038048;stroke-width:0.8000000000000002;"/><text fill="#000000" font-family="sans-serif" font-size="11.2" lengthAdjust="spacing" textLength="176.8" x="3360.8" y="444.7875">void onViewCreated(View,Bundle?)</text><ellipse cx="3353.6" cy="456.2469" fill="#84BE84" rx="2.4" ry="2.4" style="stroke:#038048;stroke-width:0.8000000000000002;"/><text fill="#000000" font-family="sans-serif" font-size="11.2" lengthAdjust="spacing" textLength="107.2" x="3360.8" y="459.6844">void onDestroyView()</text></g><!--class JuegoAdapter--><g id="elem_JuegoAdapter"><rect codeLine="112" fill="#F1F1F1" height="83.0906" id="JuegoAdapter" rx="2" ry="2" style="stroke:#181818;stroke-width:0.4000000000000001;" width="292" x="2591.6" y="528.4109"/><ellipse cx="2699" cy="541.2109" fill="#ADD1B2" rx="8.8" ry="8.8" style="stroke:#181818;stroke-width:0.8000000000000002;"/><path d="M2701.2125,537.9109 Q2701.3375,537.7359 2701.4875,537.6484 Q2701.6375,537.5609 2701.8125,537.5609 Q2702.1125,537.5609 2702.3,537.7734 Q2702.4875,537.9734 2702.4875,538.4609 L2702.4875,539.6234 Q2702.4875,540.1109 2702.3,540.3234 Q2702.1125,540.5359 2701.8125,540.5359 Q2701.5375,540.5359 2701.375,540.3734 Q2701.2125,540.2234 2701.125,539.8109 Q2701.0875,539.5234 2700.9375,539.3734 Q2700.675,539.0734 2700.1875,538.8984 Q2699.7,538.7234 2699.2,538.7234 Q2698.5875,538.7234 2698.075,538.9859 Q2697.575,539.2484 2697.175,539.8484 Q2696.7875,540.4484 2696.7875,541.2734 L2696.7875,542.1484 Q2696.7875,543.1359 2697.5,543.7984 Q2698.2125,544.4484 2699.4875,544.4484 Q2700.2375,544.4484 2700.7625,544.2484 Q2701.075,544.1234 2701.4125,543.7734 Q2701.625,543.5609 2701.7375,543.4984 Q2701.8625,543.4359 2702.025,543.4359 Q2702.2875,543.4359 2702.4875,543.6484 Q2702.7,543.8484 2702.7,544.1234 Q2702.7,544.3984 2702.425,544.7234 Q2702.025,545.1859 2701.3875,545.4484 Q2700.525,545.8109 2699.4875,545.8109 Q2698.275,545.8109 2697.3125,545.3109 Q2696.525,544.9109 2695.975,544.0609 Q2695.425,543.1984 2695.425,542.1734 L2695.425,541.2484 Q2695.425,540.1859 2695.9125,539.2734 Q2696.4125,538.3484 2697.2875,537.8609 Q2698.1625,537.3609 2699.15,537.3609 Q2699.7375,537.3609 2700.25,537.4984 Q2700.775,537.6234 2701.2125,537.9109 Z " fill="#000000"/><text fill="#000000" font-family="sans-serif" font-size="11.2" lengthAdjust="spacing" textLength="70.4" x="2715.4" y="545.8484">JuegoAdapter</text><line style="stroke:#181818;stroke-width:0.4000000000000001;" x1="2592.4" x2="2882.8" y1="554.0109" y2="554.0109"/><line style="stroke:#181818;stroke-width:0.4000000000000001;" x1="2592.4" x2="2882.8" y1="560.4109" y2="560.4109"/><ellipse cx="2600.4" cy="572.2594" fill="#84BE84" rx="2.4" ry="2.4" style="stroke:#038048;stroke-width:0.8000000000000002;"/><text fill="#000000" font-family="sans-serif" font-size="11.2" lengthAdjust="spacing" textLength="271.2" x="2607.6" y="575.6969">JuegoViewHolder onCreateViewHolder(ViewGroup,Int)</text><ellipse cx="2600.4" cy="587.1563" fill="#84BE84" rx="2.4" ry="2.4" style="stroke:#038048;stroke-width:0.8000000000000002;"/><text fill="#000000" font-family="sans-serif" font-size="11.2" lengthAdjust="spacing" textLength="90.4" x="2607.6" y="590.5938">Int getItemCount()</text><ellipse cx="2600.4" cy="602.0531" fill="#84BE84" rx="2.4" ry="2.4" style="stroke:#038048;stroke-width:0.8000000000000002;"/><text fill="#000000" font-family="sans-serif" font-size="11.2" lengthAdjust="spacing" textLength="224.8" x="2607.6" y="605.4906">void onBindViewHolder(JuegoViewHolder,Int)</text></g><!--class FavItemListFragment$Companion--><g id="elem_FavItemListFragment$Companion"><rect codeLine="118" fill="#F1F1F1" height="53.2969" id="FavItemListFragment$Companion" rx="2" ry="2" style="stroke:#181818;stroke-width:0.4000000000000001;" width="196" x="3132.4" y="543.2109"/><ellipse cx="3144.4" cy="556.0109" fill="#ADD1B2" rx="8.8" ry="8.8" style="stroke:#181818;stroke-width:0.8000000000000002;"/><path d="M3146.6125,552.7109 Q3146.7375,552.5359 3146.8875,552.4484 Q3147.0375,552.3609 3147.2125,552.3609 Q3147.5125,552.3609 3147.7,552.5734 Q3147.8875,552.7734 3147.8875,553.2609 L3147.8875,554.4234 Q3147.8875,554.9109 3147.7,555.1234 Q3147.5125,555.3359 3147.2125,555.3359 Q3146.9375,555.3359 3146.775,555.1734 Q3146.6125,555.0234 3146.525,554.6109 Q3146.4875,554.3234 3146.3375,554.1734 Q3146.075,553.8734 3145.5875,553.6984 Q3145.1,553.5234 3144.6,553.5234 Q3143.9875,553.5234 3143.475,553.7859 Q3142.975,554.0484 3142.575,554.6484 Q3142.1875,555.2484 3142.1875,556.0734 L3142.1875,556.9484 Q3142.1875,557.9359 3142.9,558.5984 Q3143.6125,559.2484 3144.8875,559.2484 Q3145.6375,559.2484 3146.1625,559.0484 Q3146.475,558.9234 3146.8125,558.5734 Q3147.025,558.3609 3147.1375,558.2984 Q3147.2625,558.2359 3147.425,558.2359 Q3147.6875,558.2359 3147.8875,558.4484 Q3148.1,558.6484 3148.1,558.9234 Q3148.1,559.1984 3147.825,559.5234 Q3147.425,559.9859 3146.7875,560.2484 Q3145.925,560.6109 3144.8875,560.6109 Q3143.675,560.6109 3142.7125,560.1109 Q3141.925,559.7109 3141.375,558.8609 Q3140.825,557.9984 3140.825,556.9734 L3140.825,556.0484 Q3140.825,554.9859 3141.3125,554.0734 Q3141.8125,553.1484 3142.6875,552.6609 Q3143.5625,552.1609 3144.55,552.1609 Q3145.1375,552.1609 3145.65,552.2984 Q3146.175,552.4234 3146.6125,552.7109 Z " fill="#000000"/><text fill="#000000" font-family="sans-serif" font-size="11.2" lengthAdjust="spacing" textLength="170.4" x="3155.6" y="560.6484">FavItemListFragment$Companion</text><line style="stroke:#181818;stroke-width:0.4000000000000001;" x1="3133.2" x2="3327.6" y1="568.8109" y2="568.8109"/><line style="stroke:#181818;stroke-width:0.4000000000000001;" x1="3133.2" x2="3327.6" y1="575.2109" y2="575.2109"/><ellipse cx="3141.2" cy="587.0594" fill="#84BE84" rx="2.4" ry="2.4" style="stroke:#038048;stroke-width:0.8000000000000002;"/><text fill="#000000" font-family="sans-serif" font-size="11.2" lengthAdjust="spacing" textLength="156.8" x="3148.4" y="590.4969">void newInstance(String,String)</text></g><!--class FavItemListFragment--><g id="elem_FavItemListFragment"><rect codeLine="122" fill="#F1F1F1" height="112.8844" id="FavItemListFragment" rx="2" ry="2" style="stroke:#181818;stroke-width:0.4000000000000001;" width="310.4" x="3006.4" y="352.8109"/><ellipse cx="3105" cy="365.6109" fill="#ADD1B2" rx="8.8" ry="8.8" style="stroke:#181818;stroke-width:0.8000000000000002;"/><path d="M3107.2125,362.3109 Q3107.3375,362.1359 3107.4875,362.0484 Q3107.6375,361.9609 3107.8125,361.9609 Q3108.1125,361.9609 3108.3,362.1734 Q3108.4875,362.3734 3108.4875,362.8609 L3108.4875,364.0234 Q3108.4875,364.5109 3108.3,364.7234 Q3108.1125,364.9359 3107.8125,364.9359 Q3107.5375,364.9359 3107.375,364.7734 Q3107.2125,364.6234 3107.125,364.2109 Q3107.0875,363.9234 3106.9375,363.7734 Q3106.675,363.4734 3106.1875,363.2984 Q3105.7,363.1234 3105.2,363.1234 Q3104.5875,363.1234 3104.075,363.3859 Q3103.575,363.6484 3103.175,364.2484 Q3102.7875,364.8484 3102.7875,365.6734 L3102.7875,366.5484 Q3102.7875,367.5359 3103.5,368.1984 Q3104.2125,368.8484 3105.4875,368.8484 Q3106.2375,368.8484 3106.7625,368.6484 Q3107.075,368.5234 3107.4125,368.1734 Q3107.625,367.9609 3107.7375,367.8984 Q3107.8625,367.8359 3108.025,367.8359 Q3108.2875,367.8359 3108.4875,368.0484 Q3108.7,368.2484 3108.7,368.5234 Q3108.7,368.7984 3108.425,369.1234 Q3108.025,369.5859 3107.3875,369.8484 Q3106.525,370.2109 3105.4875,370.2109 Q3104.275,370.2109 3103.3125,369.7109 Q3102.525,369.3109 3101.975,368.4609 Q3101.425,367.5984 3101.425,366.5734 L3101.425,365.6484 Q3101.425,364.5859 3101.9125,363.6734 Q3102.4125,362.7484 3103.2875,362.2609 Q3104.1625,361.7609 3105.15,361.7609 Q3105.7375,361.7609 3106.25,361.8984 Q3106.775,362.0234 3107.2125,362.3109 Z " fill="#000000"/><text fill="#000000" font-family="sans-serif" font-size="11.2" lengthAdjust="spacing" textLength="106.4" x="3121.4" y="370.2484">FavItemListFragment</text><line style="stroke:#181818;stroke-width:0.4000000000000001;" x1="3007.2" x2="3316" y1="378.4109" y2="378.4109"/><rect fill="none" height="4.8" style="stroke:#C82930;stroke-width:0.8000000000000002;" width="4.8" x="3012.8" y="387.8594"/><text fill="#000000" font-family="sans-serif" font-size="11.2" lengthAdjust="spacing" textLength="77.6" x="3022.4" y="393.6969">String? param1</text><rect fill="none" height="4.8" style="stroke:#C82930;stroke-width:0.8000000000000002;" width="4.8" x="3012.8" y="402.7563"/><text fill="#000000" font-family="sans-serif" font-size="11.2" lengthAdjust="spacing" textLength="77.6" x="3022.4" y="408.5938">String? param2</text><line style="stroke:#181818;stroke-width:0.4000000000000001;" x1="3007.2" x2="3316" y1="414.6047" y2="414.6047"/><ellipse cx="3015.2" cy="426.4531" fill="#84BE84" rx="2.4" ry="2.4" style="stroke:#038048;stroke-width:0.8000000000000002;"/><text fill="#000000" font-family="sans-serif" font-size="11.2" lengthAdjust="spacing" textLength="120.8" x="3022.4" y="429.8906">void onCreate(Bundle?)</text><ellipse cx="3015.2" cy="441.35" fill="#84BE84" rx="2.4" ry="2.4" style="stroke:#038048;stroke-width:0.8000000000000002;"/><text fill="#000000" font-family="sans-serif" font-size="11.2" lengthAdjust="spacing" textLength="289.6" x="3022.4" y="444.7875">View? onCreateView(LayoutInflater,ViewGroup?,Bundle?)</text><rect fill="#F24D5C" height="4.8" style="stroke:#C82930;stroke-width:0.8000000000000002;" width="4.8" x="3012.8" y="453.8469"/><text fill="#000000" font-family="sans-serif" font-size="11.2" lengthAdjust="spacing" textLength="116" x="3022.4" y="459.6844">void showToast(String)</text></g><!--class ViewHolder--><g id="elem_ViewHolder"><rect fill="#F1F1F1" height="38.4" id="ViewHolder" rx="2" ry="2" style="stroke:#181818;stroke-width:0.4000000000000001;" width="81.6" x="2684.8" y="390.0109"/><ellipse cx="2696.8" cy="402.8109" fill="#ADD1B2" rx="8.8" ry="8.8" style="stroke:#181818;stroke-width:0.8000000000000002;"/><path d="M2699.0125,399.5109 Q2699.1375,399.3359 2699.2875,399.2484 Q2699.4375,399.1609 2699.6125,399.1609 Q2699.9125,399.1609 2700.1,399.3734 Q2700.2875,399.5734 2700.2875,400.0609 L2700.2875,401.2234 Q2700.2875,401.7109 2700.1,401.9234 Q2699.9125,402.1359 2699.6125,402.1359 Q2699.3375,402.1359 2699.175,401.9734 Q2699.0125,401.8234 2698.925,401.4109 Q2698.8875,401.1234 2698.7375,400.9734 Q2698.475,400.6734 2697.9875,400.4984 Q2697.5,400.3234 2697,400.3234 Q2696.3875,400.3234 2695.875,400.5859 Q2695.375,400.8484 2694.975,401.4484 Q2694.5875,402.0484 2694.5875,402.8734 L2694.5875,403.7484 Q2694.5875,404.7359 2695.3,405.3984 Q2696.0125,406.0484 2697.2875,406.0484 Q2698.0375,406.0484 2698.5625,405.8484 Q2698.875,405.7234 2699.2125,405.3734 Q2699.425,405.1609 2699.5375,405.0984 Q2699.6625,405.0359 2699.825,405.0359 Q2700.0875,405.0359 2700.2875,405.2484 Q2700.5,405.4484 2700.5,405.7234 Q2700.5,405.9984 2700.225,406.3234 Q2699.825,406.7859 2699.1875,407.0484 Q2698.325,407.4109 2697.2875,407.4109 Q2696.075,407.4109 2695.1125,406.9109 Q2694.325,406.5109 2693.775,405.6609 Q2693.225,404.7984 2693.225,403.7734 L2693.225,402.8484 Q2693.225,401.7859 2693.7125,400.8734 Q2694.2125,399.9484 2695.0875,399.4609 Q2695.9625,398.9609 2696.95,398.9609 Q2697.5375,398.9609 2698.05,399.0984 Q2698.575,399.2234 2699.0125,399.5109 Z " fill="#000000"/><text fill="#000000" font-family="sans-serif" font-size="11.2" lengthAdjust="spacing" textLength="56" x="2708" y="407.4484">ViewHolder</text><line style="stroke:#181818;stroke-width:0.4000000000000001;" x1="2685.6" x2="2765.6" y1="415.6109" y2="415.6109"/><line style="stroke:#181818;stroke-width:0.4000000000000001;" x1="2685.6" x2="2765.6" y1="422.0109" y2="422.0109"/></g><!--class Adapter--><g id="elem_Adapter"><rect fill="#F1F1F1" height="38.4" id="Adapter" rx="2" ry="2" style="stroke:#181818;stroke-width:0.4000000000000001;" width="65.6" x="2591.2" y="390.0109"/><ellipse cx="2603.2" cy="402.8109" fill="#ADD1B2" rx="8.8" ry="8.8" style="stroke:#181818;stroke-width:0.8000000000000002;"/><path d="M2605.4125,399.5109 Q2605.5375,399.3359 2605.6875,399.2484 Q2605.8375,399.1609 2606.0125,399.1609 Q2606.3125,399.1609 2606.5,399.3734 Q2606.6875,399.5734 2606.6875,400.0609 L2606.6875,401.2234 Q2606.6875,401.7109 2606.5,401.9234 Q2606.3125,402.1359 2606.0125,402.1359 Q2605.7375,402.1359 2605.575,401.9734 Q2605.4125,401.8234 2605.325,401.4109 Q2605.2875,401.1234 2605.1375,400.9734 Q2604.875,400.6734 2604.3875,400.4984 Q2603.9,400.3234 2603.4,400.3234 Q2602.7875,400.3234 2602.275,400.5859 Q2601.775,400.8484 2601.375,401.4484 Q2600.9875,402.0484 2600.9875,402.8734 L2600.9875,403.7484 Q2600.9875,404.7359 2601.7,405.3984 Q2602.4125,406.0484 2603.6875,406.0484 Q2604.4375,406.0484 2604.9625,405.8484 Q2605.275,405.7234 2605.6125,405.3734 Q2605.825,405.1609 2605.9375,405.0984 Q2606.0625,405.0359 2606.225,405.0359 Q2606.4875,405.0359 2606.6875,405.2484 Q2606.9,405.4484 2606.9,405.7234 Q2606.9,405.9984 2606.625,406.3234 Q2606.225,406.7859 2605.5875,407.0484 Q2604.725,407.4109 2603.6875,407.4109 Q2602.475,407.4109 2601.5125,406.9109 Q2600.725,406.5109 2600.175,405.6609 Q2599.625,404.7984 2599.625,403.7734 L2599.625,402.8484 Q2599.625,401.7859 2600.1125,400.8734 Q2600.6125,399.9484 2601.4875,399.4609 Q2602.3625,398.9609 2603.35,398.9609 Q2603.9375,398.9609 2604.45,399.0984 Q2604.975,399.2234 2605.4125,399.5109 Z " fill="#000000"/><text fill="#000000" font-family="sans-serif" font-size="11.2" lengthAdjust="spacing" textLength="40" x="2614.4" y="407.4484">Adapter</text><line style="stroke:#181818;stroke-width:0.4000000000000001;" x1="2592" x2="2656" y1="415.6109" y2="415.6109"/><line style="stroke:#181818;stroke-width:0.4000000000000001;" x1="2592" x2="2656" y1="422.0109" y2="422.0109"/></g><!--class SplashActivity--><g id="elem_SplashActivity"><rect codeLine="108" fill="#F1F1F1" height="53.2969" id="SplashActivity" rx="2" ry="2" style="stroke:#181818;stroke-width:0.4000000000000001;" width="141.6" x="56.4" y="382.4109"/><ellipse cx="89.28" cy="395.2109" fill="#ADD1B2" rx="8.8" ry="8.8" style="stroke:#181818;stroke-width:0.8000000000000002;"/><path d="M91.4925,391.9109 Q91.6175,391.7359 91.7675,391.6484 Q91.9175,391.5609 92.0925,391.5609 Q92.3925,391.5609 92.58,391.7734 Q92.7675,391.9734 92.7675,392.4609 L92.7675,393.6234 Q92.7675,394.1109 92.58,394.3234 Q92.3925,394.5359 92.0925,394.5359 Q91.8175,394.5359 91.655,394.3734 Q91.4925,394.2234 91.405,393.8109 Q91.3675,393.5234 91.2175,393.3734 Q90.955,393.0734 90.4675,392.8984 Q89.98,392.7234 89.48,392.7234 Q88.8675,392.7234 88.355,392.9859 Q87.855,393.2484 87.455,393.8484 Q87.0675,394.4484 87.0675,395.2734 L87.0675,396.1484 Q87.0675,397.1359 87.78,397.7984 Q88.4925,398.4484 89.7675,398.4484 Q90.5175,398.4484 91.0425,398.2484 Q91.355,398.1234 91.6925,397.7734 Q91.905,397.5609 92.0175,397.4984 Q92.1425,397.4359 92.305,397.4359 Q92.5675,397.4359 92.7675,397.6484 Q92.98,397.8484 92.98,398.1234 Q92.98,398.3984 92.705,398.7234 Q92.305,399.1859 91.6675,399.4484 Q90.805,399.8109 89.7675,399.8109 Q88.555,399.8109 87.5925,399.3109 Q86.805,398.9109 86.255,398.0609 Q85.705,397.1984 85.705,396.1734 L85.705,395.2484 Q85.705,394.1859 86.1925,393.2734 Q86.6925,392.3484 87.5675,391.8609 Q88.4425,391.3609 89.43,391.3609 Q90.0175,391.3609 90.53,391.4984 Q91.055,391.6234 91.4925,391.9109 Z " fill="#000000"/><text fill="#000000" font-family="sans-serif" font-size="11.2" lengthAdjust="spacing" textLength="69.6" x="105.12" y="399.8484">SplashActivity</text><line style="stroke:#181818;stroke-width:0.4000000000000001;" x1="57.2" x2="197.2" y1="408.0109" y2="408.0109"/><line style="stroke:#181818;stroke-width:0.4000000000000001;" x1="57.2" x2="197.2" y1="414.4109" y2="414.4109"/><ellipse cx="65.2" cy="426.2594" fill="#84BE84" rx="2.4" ry="2.4" style="stroke:#038048;stroke-width:0.8000000000000002;"/><text fill="#000000" font-family="sans-serif" font-size="11.2" lengthAdjust="spacing" textLength="120.8" x="72.4" y="429.6969">void onCreate(Bundle?)</text></g><!--class Fragment--><g id="elem_Fragment"><rect fill="#F1F1F1" height="38.4" id="Fragment" rx="2" ry="2" style="stroke:#181818;stroke-width:0.4000000000000001;" width="74.4" x="2702" y="106.4109"/><ellipse cx="2714" cy="119.2109" fill="#ADD1B2" rx="8.8" ry="8.8" style="stroke:#181818;stroke-width:0.8000000000000002;"/><path d="M2716.2125,115.9109 Q2716.3375,115.7359 2716.4875,115.6484 Q2716.6375,115.5609 2716.8125,115.5609 Q2717.1125,115.5609 2717.3,115.7734 Q2717.4875,115.9734 2717.4875,116.4609 L2717.4875,117.6234 Q2717.4875,118.1109 2717.3,118.3234 Q2717.1125,118.5359 2716.8125,118.5359 Q2716.5375,118.5359 2716.375,118.3734 Q2716.2125,118.2234 2716.125,117.8109 Q2716.0875,117.5234 2715.9375,117.3734 Q2715.675,117.0734 2715.1875,116.8984 Q2714.7,116.7234 2714.2,116.7234 Q2713.5875,116.7234 2713.075,116.9859 Q2712.575,117.2484 2712.175,117.8484 Q2711.7875,118.4484 2711.7875,119.2734 L2711.7875,120.1484 Q2711.7875,121.1359 2712.5,121.7984 Q2713.2125,122.4484 2714.4875,122.4484 Q2715.2375,122.4484 2715.7625,122.2484 Q2716.075,122.1234 2716.4125,121.7734 Q2716.625,121.5609 2716.7375,121.4984 Q2716.8625,121.4359 2717.025,121.4359 Q2717.2875,121.4359 2717.4875,121.6484 Q2717.7,121.8484 2717.7,122.1234 Q2717.7,122.3984 2717.425,122.7234 Q2717.025,123.1859 2716.3875,123.4484 Q2715.525,123.8109 2714.4875,123.8109 Q2713.275,123.8109 2712.3125,123.3109 Q2711.525,122.9109 2710.975,122.0609 Q2710.425,121.1984 2710.425,120.1734 L2710.425,119.2484 Q2710.425,118.1859 2710.9125,117.2734 Q2711.4125,116.3484 2712.2875,115.8609 Q2713.1625,115.3609 2714.15,115.3609 Q2714.7375,115.3609 2715.25,115.4984 Q2715.775,115.6234 2716.2125,115.9109 Z " fill="#000000"/><text fill="#000000" font-family="sans-serif" font-size="11.2" lengthAdjust="spacing" textLength="48.8" x="2725.2" y="123.8484">Fragment</text><line style="stroke:#181818;stroke-width:0.4000000000000001;" x1="2702.8" x2="2775.6" y1="132.0109" y2="132.0109"/><line style="stroke:#181818;stroke-width:0.4000000000000001;" x1="2702.8" x2="2775.6" y1="138.4109" y2="138.4109"/></g><!--class FragmentStateAdapter--><g id="elem_FragmentStateAdapter"><rect fill="#F1F1F1" height="38.4" id="FragmentStateAdapter" rx="2" ry="2" style="stroke:#181818;stroke-width:0.4000000000000001;" width="140.8" x="2860" y="106.4109"/><ellipse cx="2872" cy="119.2109" fill="#ADD1B2" rx="8.8" ry="8.8" style="stroke:#181818;stroke-width:0.8000000000000002;"/><path d="M2874.2125,115.9109 Q2874.3375,115.7359 2874.4875,115.6484 Q2874.6375,115.5609 2874.8125,115.5609 Q2875.1125,115.5609 2875.3,115.7734 Q2875.4875,115.9734 2875.4875,116.4609 L2875.4875,117.6234 Q2875.4875,118.1109 2875.3,118.3234 Q2875.1125,118.5359 2874.8125,118.5359 Q2874.5375,118.5359 2874.375,118.3734 Q2874.2125,118.2234 2874.125,117.8109 Q2874.0875,117.5234 2873.9375,117.3734 Q2873.675,117.0734 2873.1875,116.8984 Q2872.7,116.7234 2872.2,116.7234 Q2871.5875,116.7234 2871.075,116.9859 Q2870.575,117.2484 2870.175,117.8484 Q2869.7875,118.4484 2869.7875,119.2734 L2869.7875,120.1484 Q2869.7875,121.1359 2870.5,121.7984 Q2871.2125,122.4484 2872.4875,122.4484 Q2873.2375,122.4484 2873.7625,122.2484 Q2874.075,122.1234 2874.4125,121.7734 Q2874.625,121.5609 2874.7375,121.4984 Q2874.8625,121.4359 2875.025,121.4359 Q2875.2875,121.4359 2875.4875,121.6484 Q2875.7,121.8484 2875.7,122.1234 Q2875.7,122.3984 2875.425,122.7234 Q2875.025,123.1859 2874.3875,123.4484 Q2873.525,123.8109 2872.4875,123.8109 Q2871.275,123.8109 2870.3125,123.3109 Q2869.525,122.9109 2868.975,122.0609 Q2868.425,121.1984 2868.425,120.1734 L2868.425,119.2484 Q2868.425,118.1859 2868.9125,117.2734 Q2869.4125,116.3484 2870.2875,115.8609 Q2871.1625,115.3609 2872.15,115.3609 Q2872.7375,115.3609 2873.25,115.4984 Q2873.775,115.6234 2874.2125,115.9109 Z " fill="#000000"/><text fill="#000000" font-family="sans-serif" font-size="11.2" lengthAdjust="spacing" textLength="115.2" x="2883.2" y="123.8484">FragmentStateAdapter</text><line style="stroke:#181818;stroke-width:0.4000000000000001;" x1="2860.8" x2="3000" y1="132.0109" y2="132.0109"/><line style="stroke:#181818;stroke-width:0.4000000000000001;" x1="2860.8" x2="3000" y1="138.4109" y2="138.4109"/></g><!--class AppCompatActivity--><g id="elem_AppCompatActivity"><rect fill="#F1F1F1" height="38.4" id="AppCompatActivity" rx="2" ry="2" style="stroke:#181818;stroke-width:0.4000000000000001;" width="120" x="2498.4" y="106.4109"/><ellipse cx="2510.4" cy="119.2109" fill="#ADD1B2" rx="8.8" ry="8.8" style="stroke:#181818;stroke-width:0.8000000000000002;"/><path d="M2512.6125,115.9109 Q2512.7375,115.7359 2512.8875,115.6484 Q2513.0375,115.5609 2513.2125,115.5609 Q2513.5125,115.5609 2513.7,115.7734 Q2513.8875,115.9734 2513.8875,116.4609 L2513.8875,117.6234 Q2513.8875,118.1109 2513.7,118.3234 Q2513.5125,118.5359 2513.2125,118.5359 Q2512.9375,118.5359 2512.775,118.3734 Q2512.6125,118.2234 2512.525,117.8109 Q2512.4875,117.5234 2512.3375,117.3734 Q2512.075,117.0734 2511.5875,116.8984 Q2511.1,116.7234 2510.6,116.7234 Q2509.9875,116.7234 2509.475,116.9859 Q2508.975,117.2484 2508.575,117.8484 Q2508.1875,118.4484 2508.1875,119.2734 L2508.1875,120.1484 Q2508.1875,121.1359 2508.9,121.7984 Q2509.6125,122.4484 2510.8875,122.4484 Q2511.6375,122.4484 2512.1625,122.2484 Q2512.475,122.1234 2512.8125,121.7734 Q2513.025,121.5609 2513.1375,121.4984 Q2513.2625,121.4359 2513.425,121.4359 Q2513.6875,121.4359 2513.8875,121.6484 Q2514.1,121.8484 2514.1,122.1234 Q2514.1,122.3984 2513.825,122.7234 Q2513.425,123.1859 2512.7875,123.4484 Q2511.925,123.8109 2510.8875,123.8109 Q2509.675,123.8109 2508.7125,123.3109 Q2507.925,122.9109 2507.375,122.0609 Q2506.825,121.1984 2506.825,120.1734 L2506.825,119.2484 Q2506.825,118.1859 2507.3125,117.2734 Q2507.8125,116.3484 2508.6875,115.8609 Q2509.5625,115.3609 2510.55,115.3609 Q2511.1375,115.3609 2511.65,115.4984 Q2512.175,115.6234 2512.6125,115.9109 Z " fill="#000000"/><text fill="#000000" font-family="sans-serif" font-size="11.2" lengthAdjust="spacing" textLength="94.4" x="2521.6" y="123.8484">AppCompatActivity</text><line style="stroke:#181818;stroke-width:0.4000000000000001;" x1="2499.2" x2="2617.6" y1="132.0109" y2="132.0109"/><line style="stroke:#181818;stroke-width:0.4000000000000001;" x1="2499.2" x2="2617.6" y1="138.4109" y2="138.4109"/></g><!--reverse link Fragment to ItemListFragment--><g id="link_Fragment_ItemListFragment"><path codeLine="157" d="M2708.6596,154.4176 C2688.2596,172.3616 2665.44,189.2509 2631.2,202.4109 C2609.136,210.8909 2599.176,197.5389 2578.4,208.8109 C2524.16,238.2349 2480.232,293.0269 2451.032,337.7709 " fill="none" id="Fragment-backto-ItemListFragment" style="stroke:#181818;stroke-width:0.8000000000000002;"/><polygon fill="none" points="2719.472,144.9069,2705.4894,150.8135,2711.8298,158.0217,2719.472,144.9069" style="stroke:#181818;stroke-width:0.8000000000000002;"/></g><!--reverse link Fragment to UserInfoFragment--><g id="link_Fragment_UserInfoFragment"><path codeLine="158" d="M2768.4298,154.8595 C2788.5178,173.4915 2811.808,191.1389 2847.2,202.4109 C2871.352,210.0989 4649.032,198.1069 4672,208.8109 C4738.744,239.9149 4788.688,311.7709 4816.32,360.2269 " fill="none" id="Fragment-backto-UserInfoFragment" style="stroke:#181818;stroke-width:0.8000000000000002;"/><polygon fill="none" points="2757.872,145.0669,2765.1656,158.3787,2771.6939,151.3402,2757.872,145.0669" style="stroke:#181818;stroke-width:0.8000000000000002;"/></g><!--reverse link ViewHolder to JuegoViewHolder--><g id="link_ViewHolder_JuegoViewHolder"><path codeLine="159" d="M2743.7704,440.6656 C2753.5704,456.3616 2761.856,466.3309 2780.8,480.4109 C2786.936,484.9709 2858.536,512.6749 2919.736,535.9469 " fill="none" id="ViewHolder-backto-JuegoViewHolder" style="stroke:#181818;stroke-width:0.8000000000000002;"/><polygon fill="none" points="2736.144,428.4509,2739.6988,443.2077,2747.8419,438.1235,2736.144,428.4509" style="stroke:#181818;stroke-width:0.8000000000000002;"/></g><!--reverse link Fragment to Juego2Fragment--><g id="link_Fragment_Juego2Fragment"><path codeLine="160" d="M2709.9135,154.7368 C2689.8015,173.2968 2666.512,190.9069 2631.2,202.4109 C2610.832,209.0429 2264.968,199.6589 2245.6,208.8109 C2182.392,238.6909 2133.928,304.6749 2105.304,352.6189 " fill="none" id="Fragment-backto-Juego2Fragment" style="stroke:#181818;stroke-width:0.8000000000000002;"/><polygon fill="none" points="2720.496,144.9709,2706.6583,151.2093,2713.1688,158.2643,2720.496,144.9709" style="stroke:#181818;stroke-width:0.8000000000000002;"/></g><!--reverse link Fragment to DetailItemFragment--><g id="link_Fragment_DetailItemFragment"><path codeLine="161" d="M2768.4378,154.8515 C2788.5258,173.4835 2811.816,191.1229 2847.2,202.4109 C2866.952,208.7149 4321.256,199.9549 4340,208.8109 C4402.696,238.4269 4449.888,304.6429 4477.544,352.7069 " fill="none" id="Fragment-backto-DetailItemFragment" style="stroke:#181818;stroke-width:0.8000000000000002;"/><polygon fill="none" points="2757.88,145.0589,2765.1736,158.3707,2771.7019,151.3322,2757.88,145.0589" style="stroke:#181818;stroke-width:0.8000000000000002;"/></g><!--reverse link FragmentStateAdapter to ViewPagerAdapter--><g id="link_FragmentStateAdapter_ViewPagerAdapter"><path codeLine="162" d="M3015.215,127.3755 C3368.951,131.6155 4924.12,153.3389 5010.4,208.8109 C5068.688,246.2829 5094.696,328.5389 5105.104,374.9149 " fill="none" id="FragmentStateAdapter-backto-ViewPagerAdapter" style="stroke:#181818;stroke-width:0.8000000000000002;"/><polygon fill="none" points="3000.816,127.2029,3015.1574,132.1752,3015.2725,122.5759,3000.816,127.2029" style="stroke:#181818;stroke-width:0.8000000000000002;"/></g><!--reverse link AppCompatActivity to MainFragment--><g id="link_AppCompatActivity_MainFragment"><path codeLine="163" d="M2593.9257,153.3957 C2618.9337,171.6197 2648.48,190.0029 2688.8,202.4109 C2708.384,208.4429 2763.624,197.6349 2780.8,208.8109 C2833.624,243.1789 2861.744,313.0909 2875.36,360.3469 " fill="none" id="AppCompatActivity-backto-MainFragment" style="stroke:#181818;stroke-width:0.8000000000000002;"/><polygon fill="none" points="2582.288,144.9149,2591.0988,157.2749,2596.7527,149.5164,2582.288,144.9149" style="stroke:#181818;stroke-width:0.8000000000000002;"/></g><!--reverse link AppCompatActivity to ReciclerViewActivity--><g id="link_AppCompatActivity_ReciclerViewActivity"><path codeLine="164" d="M2483.7922,126.7235 C2229.2242,128.1475 1263.28,138.1309 1146.4,208.8109 C1090.696,242.4989 1057.592,312.7549 1040.696,360.2669 " fill="none" id="AppCompatActivity-backto-ReciclerViewActivity" style="stroke:#181818;stroke-width:0.8000000000000002;"/><polygon fill="none" points="2498.192,126.6429,2483.7654,121.9236,2483.8191,131.5234,2498.192,126.6429" style="stroke:#181818;stroke-width:0.8000000000000002;"/></g><!--reverse link Fragment to LoginFragment--><g id="link_Fragment_LoginFragment"><path codeLine="165" d="M2768.4399,154.8412 C2788.5279,173.4652 2811.824,191.0989 2847.2,202.4109 C2877.744,212.1709 3972.552,195.2349 4001.6,208.8109 C4071.704,241.5709 4123.304,319.2349 4149.952,367.4509 " fill="none" id="Fragment-backto-LoginFragment" style="stroke:#181818;stroke-width:0.8000000000000002;"/><polygon fill="none" points="2757.88,145.0509,2765.1764,158.3612,2771.7033,151.3212,2757.88,145.0509" style="stroke:#181818;stroke-width:0.8000000000000002;"/></g><!--reverse link Fragment to MenuFragment--><g id="link_Fragment_MenuFragment"><path codeLine="166" d="M2768.4521,154.8207 C2788.5401,173.4287 2811.832,191.0589 2847.2,202.4109 C2868.784,209.3389 3642.672,199.1869 3663.2,208.8109 C3733.264,241.6509 3784.872,319.2829 3811.536,367.4829 " fill="none" id="Fragment-backto-MenuFragment" style="stroke:#181818;stroke-width:0.8000000000000002;"/><polygon fill="none" points="2757.888,145.0349,2765.1901,158.342,2771.714,151.2993,2757.888,145.0349" style="stroke:#181818;stroke-width:0.8000000000000002;"/></g><!--reverse link CreditFragment to CreditFragment$Companion--><g id="link_CreditFragment_CreditFragment$Companion"><path codeLine="167" d="M3496.8,478.4909 C3496.8,504.7629 3496.8,522.0669 3496.8,543.0109 " fill="none" id="CreditFragment-backto-CreditFragment$Companion" style="stroke:#181818;stroke-width:0.8000000000000002;stroke-dasharray:7.0,7.0;"/><ellipse cx="3496.8" cy="472.0909" fill="#FFFFFF" rx="6.4" ry="6.4" style="stroke:#181818;stroke-width:0.8000000000000002;"/><line style="stroke:#181818;stroke-width:0.8000000000000002;" x1="3496.8" x2="3496.8" y1="478.4909" y2="465.6909"/><line style="stroke:#181818;stroke-width:0.8000000000000002;" x1="3490.4" x2="3503.2" y1="472.0909" y2="472.0909"/></g><!--reverse link Fragment to CreditFragment--><g id="link_Fragment_CreditFragment"><path codeLine="168" d="M2768.4723,154.7674 C2788.5763,173.3434 2811.864,190.9629 2847.2,202.4109 C2872.784,210.6989 3306.936,197.2189 3331.2,208.8109 C3393.664,238.6589 3440.832,304.6509 3468.544,352.6029 " fill="none" id="Fragment-backto-CreditFragment" style="stroke:#181818;stroke-width:0.8000000000000002;"/><polygon fill="none" points="2757.896,144.9949,2765.2148,158.2929,2771.7298,151.242,2757.896,144.9949" style="stroke:#181818;stroke-width:0.8000000000000002;"/></g><!--reverse link AppCompatActivity to MainActivity--><g id="link_AppCompatActivity_MainActivity"><path codeLine="169" d="M2483.8758,128.0875 C2195.0438,134.7595 975.648,165.3789 907.2,208.8109 C851.08,244.4189 822.664,320.1869 809.84,367.4509 " fill="none" id="AppCompatActivity-backto-MainActivity" style="stroke:#181818;stroke-width:0.8000000000000002;"/><polygon fill="none" points="2498.272,127.7549,2483.765,123.2888,2483.9867,132.8862,2498.272,127.7549" style="stroke:#181818;stroke-width:0.8000000000000002;"/></g><!--reverse link Fragment to Juego1Fragment--><g id="link_Fragment_Juego1Fragment"><path codeLine="170" d="M2709.9479,154.8207 C2689.8599,173.4287 2666.568,191.0589 2631.2,202.4109 C2609.832,209.2669 1843.536,199.3069 1823.2,208.8109 C1752.96,241.6349 1701.048,319.2749 1674.216,367.4749 " fill="none" id="Fragment-backto-Juego1Fragment" style="stroke:#181818;stroke-width:0.8000000000000002;"/><polygon fill="none" points="2720.512,145.0349,2706.686,151.2993,2713.2099,158.342,2720.512,145.0349" style="stroke:#181818;stroke-width:0.8000000000000002;"/></g><!--reverse link AppCompatActivity to SplashActivity--><g id="link_AppCompatActivity_SplashActivity"><path codeLine="171" d="M2483.9764,126.9446 C2128.8164,129.6486 329.008,146.3709 230.4,208.8109 C168.272,248.1549 141.688,337.7789 131.984,382.3069 " fill="none" id="AppCompatActivity-backto-SplashActivity" style="stroke:#181818;stroke-width:0.8000000000000002;"/><polygon fill="none" points="2498.376,126.8349,2483.9399,122.1447,2484.013,131.7444,2498.376,126.8349" style="stroke:#181818;stroke-width:0.8000000000000002;"/></g><!--reverse link Adapter to JuegoAdapter--><g id="link_Adapter_JuegoAdapter"><path codeLine="172" d="M2643.8685,440.4581 C2653.2605,454.7701 2658.864,463.0029 2671.2,480.4109 C2682.384,496.1949 2695.016,513.2749 2706.24,528.1949 " fill="none" id="Adapter-backto-JuegoAdapter" style="stroke:#181818;stroke-width:0.8000000000000002;"/><polygon fill="none" points="2635.968,428.4189,2639.8554,443.0916,2647.8816,437.8246,2635.968,428.4189" style="stroke:#181818;stroke-width:0.8000000000000002;"/></g><!--reverse link FavItemListFragment to FavItemListFragment$Companion--><g id="link_FavItemListFragment_FavItemListFragment$Companion"><path codeLine="173" d="M3190.7411,477.441 C3202.0931,503.713 3210.024,522.0669 3219.08,543.0109 " fill="none" id="FavItemListFragment-backto-FavItemListFragment$Companion" style="stroke:#181818;stroke-width:0.8000000000000002;stroke-dasharray:7.0,7.0;"/><ellipse cx="3188.2026" cy="471.5659" fill="#FFFFFF" rx="6.4" ry="6.4" style="stroke:#181818;stroke-width:0.8000000000000002;"/><line style="stroke:#181818;stroke-width:0.8000000000000002;" x1="3190.7411" x2="3185.664" y1="477.441" y2="465.6909"/><line style="stroke:#181818;stroke-width:0.8000000000000002;" x1="3182.3276" x2="3194.0776" y1="474.1045" y2="469.0274"/></g><!--reverse link Fragment to FavItemListFragment--><g id="link_Fragment_FavItemListFragment"><path codeLine="174" d="M2768.9957,154.8132 C2789.2037,173.1972 2812.264,190.4989 2847.2,202.4109 C2877.856,212.8589 2963.728,194.5389 2992.8,208.8109 C3055.336,239.5069 3103.568,305.1549 3132.16,352.8029 " fill="none" id="Fragment-backto-FavItemListFragment" style="stroke:#181818;stroke-width:0.8000000000000002;"/><polygon fill="none" points="2758.344,145.1229,2765.7656,158.3638,2772.2258,151.2626,2758.344,145.1229" style="stroke:#181818;stroke-width:0.8000000000000002;"/></g><!--reverse link Fragment to ViewPagerFragment--><g id="link_Fragment_ViewPagerFragment"><path codeLine="175" d="M2709.9601,154.8412 C2689.8721,173.4652 2666.576,191.0989 2631.2,202.4109 C2600.864,212.1069 1513.664,195.3629 1484.8,208.8109 C1414.52,241.5549 1362.624,319.2189 1335.8,367.4509 " fill="none" id="Fragment-backto-ViewPagerFragment" style="stroke:#181818;stroke-width:0.8000000000000002;"/><polygon fill="none" points="2720.52,145.0509,2706.6967,151.3212,2713.2236,158.3612,2720.52,145.0509" style="stroke:#181818;stroke-width:0.8000000000000002;"/></g><!--reverse link JuegoProvider to JuegoProvider$Companion--><g id="link_JuegoProvider_JuegoProvider$Companion"><path codeLine="176" d="M631.2,441.3869 C631.2,469.6829 631.2,510.8989 631.2,543.1229 " fill="none" id="JuegoProvider-backto-JuegoProvider$Companion" style="stroke:#181818;stroke-width:0.8000000000000002;stroke-dasharray:7.0,7.0;"/><ellipse cx="631.2" cy="434.9869" fill="#FFFFFF" rx="6.4" ry="6.4" style="stroke:#181818;stroke-width:0.8000000000000002;"/><line style="stroke:#181818;stroke-width:0.8000000000000002;" x1="631.2" x2="631.2" y1="441.3869" y2="428.5869"/><line style="stroke:#181818;stroke-width:0.8000000000000002;" x1="624.8" x2="637.6" y1="434.9869" y2="434.9869"/></g><!--reverse link Fragment to ReciclerViewFragment--><g id="link_Fragment_ReciclerViewFragment"><path codeLine="177" d="M2709.9723,154.8617 C2689.8843,173.5017 2666.592,191.1469 2631.2,202.4109 C2603.896,211.0989 593.992,196.7389 568,208.8109 C510.776,235.3869 465.76,291.7869 436.528,337.8749 " fill="none" id="Fragment-backto-ReciclerViewFragment" style="stroke:#181818;stroke-width:0.8000000000000002;"/><polygon fill="none" points="2720.528,145.0669,2706.7074,151.3432,2713.2373,158.3803,2720.528,145.0669" style="stroke:#181818;stroke-width:0.8000000000000002;"/></g><!--SRC=[rLTRRvim57xdL_2m1wOaICdpjAXfrIrJMbNBkjV9Coxr13QoJR9ewt-VRIun568FbbPx0dpiu-zyvmfC0ES-f6cO0ePv2i8VEOef3zS2fHlCnJK3SOg8y7zvCx_wg8GhJ29CugN_xNln9lVurUl4_uhHtgVaaY4WaFe8Dk10Sx4c3ubSOLErze7HF5jELpc94hHyAu_jA8xaCIKiZaQ1UZzkcHLRCC4G0_OPmGDC4DCNr49A5CWjIX1K2gw0eDnGVeMuOFHGdddoF0_sCG4Ya4cmuJr7J2AddOnKGWT6bkUWnCc2J-fJdVj8amWnQS341ASlOOX8KS7NjAJDdxttxmaMbckq-aKdFONelEGqNLg60KmeHnKALqzV8G5mekAdqvYZ-9NYVqWKQqzACvxivYjrTo16xA9Oq76obYJ4I6V-9SqrbvEQ4Hzgd3NFShE6Oxtg1c3IoR4IMDWjEIWe2dh9iH4ZomUkoiS557Y7nQ41nTnGGd96CQ14EKNeXiOzn6d9MHBD2TWD8dctGwNWzM19bH6kUzcRIvfcW61AT6XhPn2qNnCk084eS8lTfiw6iONeFweEAjqQmLzz67de4lGhIXC4Y9HjyooZJDo27OxbfliiSEaUy_xkCN_1w54h68A4fpbN2KnukCtasgF1KIyBJwwTs2olxTPisb4i1JNygIwlFIMv1AN8Ciwsr4-T2_GrsBKdGLlsR0MJ7faMZy6tw00eT2pz332GpjiBYrEHE2mSoihC7-d-2mLS18OL_MRK3RCpUclfovS_xVOxHdTOEhtbDp-HR0EzWzzY8kJSHqywgw7iz2HXjinEJimDYzUQcS_o6-5vW4HCId-63wMn8SYoiARXtU_PpEM7QwYUljyLppBnbON7fhPLIOQYRFuhZBNr-S1-rBYJM3ELVejZkIatROMCYgeAs-veJyN76oHKg5Ah07sHPJhHHDqhR9hD8NYyrgvvTYo_ZN5ph39pHFJSvwj960wPyCQYRUeTxnvpqXgLFFD_WCawvvpoZslYcBEEzvT3WCNf9wUJiPxlK3vKvRC1mRFsrnxBUphwK61TZVeF]--></g></svg>